<?xml version="1.0" encoding="utf-8"?>
<!-- Generator: Adobe Illustrator 19.0.0, SVG Export Plug-In . SVG Version: 6.00 Build 0)  -->
<svg version="1.1" id="Capa_1" xmlns="http://www.w3.org/2000/svg" xmlns:xlink="http://www.w3.org/1999/xlink" x="0px" y="0px"
	 viewBox="0 0 165 67.4" style="enable-background:new 0 0 165 67.4;" xml:space="preserve">
<style type="text/css">
	.st0{fill:#76132D;}
</style>
<g id="XMLID_6_">
	<g id="XMLID_7_">
		<path id="XMLID_109_" class="st0" d="M60.8,25.9c0-5,0-6-0.1-7c-0.1-1.1-0.3-1.7-1.4-1.9c-0.3-0.1-0.8-0.1-1.3-0.1
			c-0.4,0-0.6-0.1-0.6-0.3c0-0.2,0.2-0.3,0.7-0.3c1.8,0,3.9,0.1,4.9,0.1c0.8,0,2.9-0.1,4.1-0.1c0.5,0,0.7,0.1,0.7,0.3
			c0,0.2-0.2,0.3-0.5,0.3c-0.4,0-0.6,0-1,0.1c-0.9,0.2-1.2,0.7-1.2,1.9c-0.1,1.1-0.1,2-0.1,7v4.7c0,4.8,1,6.8,2.6,8.2
			c1.5,1.2,3.1,1.4,4.2,1.4c1.5,0,3.3-0.5,4.6-1.8c1.9-1.8,2-4.8,2-8.2v-4.2c0-5,0-6-0.1-7c-0.1-1.1-0.3-1.7-1.4-1.9
			c-0.3-0.1-0.8-0.1-1.2-0.1c-0.4,0-0.6-0.1-0.6-0.3c0-0.2,0.2-0.3,0.7-0.3c1.7,0,3.8,0.1,3.9,0.1c0.4,0,2.5-0.1,3.8-0.1
			c0.5,0,0.7,0.1,0.7,0.3c0,0.2-0.2,0.3-0.6,0.3c-0.4,0-0.6,0-1,0.1c-0.9,0.2-1.2,0.7-1.2,1.9c-0.1,1.1-0.1,2-0.1,7v3.6
			c0,3.7-0.4,7.6-3.2,10c-2.4,2-4.8,2.4-7,2.4c-1.8,0-5-0.1-7.5-2.3c-1.7-1.5-3-4-3-8.8V25.9z"/>
		<path id="XMLID_108_" class="st0" d="M89.8,40.9c-0.5-0.2-0.6-0.4-0.6-1.1c0-1.8,0.1-3.8,0.2-4.3c0-0.5,0.1-0.9,0.4-0.9
			c0.3,0,0.3,0.3,0.3,0.6c0,0.4,0.1,1.1,0.3,1.7c0.7,2.5,2.7,3.4,4.8,3.4c3,0,4.5-2,4.5-3.8c0-1.6-0.5-3.2-3.3-5.3l-1.5-1.2
			c-3.7-2.9-5-5.2-5-7.9c0-3.7,3.1-6.3,7.8-6.3c2.2,0,3.6,0.3,4.5,0.6c0.3,0.1,0.5,0.2,0.5,0.4c0,0.4-0.1,1.4-0.1,4
			c0,0.7-0.1,1-0.4,1c-0.2,0-0.3-0.2-0.3-0.6c0-0.3-0.2-1.3-0.9-2.2c-0.5-0.6-1.5-1.6-3.7-1.6c-2.5,0-4,1.4-4,3.4
			c0,1.5,0.8,2.7,3.6,4.8l0.9,0.7c4.1,3,5.5,5.3,5.5,8.5c0,1.9-0.7,4.2-3.2,5.8c-1.7,1.1-3.6,1.4-5.4,1.4
			C92.7,41.8,91.2,41.6,89.8,40.9"/>
		<path id="XMLID_107_" class="st0" d="M112.9,16.4c0.1-0.6,0.3-0.9,0.6-0.9c0.3,0,0.5,0.2,0.9,1l9.2,18.7l9.2-19
			c0.3-0.5,0.4-0.8,0.7-0.8c0.3,0,0.5,0.3,0.6,1l3.1,20.5c0.3,2.1,0.6,3.1,1.7,3.4c1,0.3,1.6,0.3,2.1,0.3c0.3,0,0.5,0,0.5,0.2
			c0,0.3-0.4,0.4-0.9,0.4c-0.8,0-5.5-0.1-6.8-0.2c-0.8-0.1-1-0.2-1-0.4c0-0.2,0.1-0.3,0.4-0.4c0.2-0.1,0.3-0.5,0.2-1.4l-2-14.6h-0.1
			l-7.3,15.1c-0.8,1.6-0.9,1.9-1.2,1.9c-0.3,0-0.6-0.7-1.2-1.7c-0.8-1.5-3.5-6.6-3.9-7.5c-0.3-0.7-2.3-4.9-3.5-7.4h-0.1L112.1,38
			c-0.1,0.6-0.1,1-0.1,1.6c0,0.6,0.4,0.9,1,1.1c0.6,0.1,1.1,0.2,1.4,0.2c0.3,0,0.5,0.1,0.5,0.2c0,0.3-0.3,0.4-0.8,0.4
			c-1.4,0-2.9-0.1-3.5-0.1c-0.6,0-2.3,0.1-3.3,0.1c-0.3,0-0.6-0.1-0.6-0.4c0-0.2,0.2-0.2,0.5-0.2c0.3,0,0.5,0,1-0.1
			c0.9-0.2,1.2-1.5,1.4-2.6L112.9,16.4z"/>
		<path id="XMLID_106_" class="st0" d="M147.4,25.9c0-5,0-6-0.1-7c-0.1-1.1-0.3-1.7-1.4-1.9c-0.3-0.1-0.8-0.1-1.3-0.1
			c-0.4,0-0.6-0.1-0.6-0.3c0-0.2,0.2-0.3,0.7-0.3c1.8,0,3.9,0.1,4.9,0.1c1.4,0,3.3-0.1,4.9-0.1c4.2,0,5.7,1.4,6.3,1.9
			c0.7,0.7,1.7,2.2,1.7,3.9c0,4.7-3.5,8-8.3,8c-0.2,0-0.5,0-0.7,0c-0.2,0-0.4-0.1-0.4-0.3c0-0.3,0.2-0.4,0.9-0.4
			c1.9,0,4.5-2.1,4.5-5.5c0-1.1-0.1-3.3-2-5c-1.2-1.1-2.6-1.3-3.4-1.3c-0.5,0-1,0-1.3,0.1c-0.2,0.1-0.3,0.3-0.3,0.6v13.3
			c0,3.1,0,5.7,0.2,7.1c0.1,0.9,0.3,1.7,1.3,1.8c0.5,0.1,1.2,0.1,1.7,0.1c0.4,0,0.5,0.1,0.5,0.3c0,0.2-0.3,0.3-0.6,0.3
			c-2.2,0-4.3-0.1-5.2-0.1c-0.8,0-2.9,0.1-4.2,0.1c-0.4,0-0.7-0.1-0.7-0.3c0-0.2,0.1-0.3,0.5-0.3c0.5,0,0.9-0.1,1.2-0.1
			c0.7-0.1,0.8-0.9,1-1.8c0.2-1.4,0.2-4,0.2-7.1V25.9z"/>
		<path id="XMLID_105_" class="st0" d="M57.6,56.9c-0.1-0.1-0.2-0.1-0.2-0.3c0-0.4,0-0.9,0-1c0-0.1,0-0.2,0.1-0.2
			c0.1,0,0.1,0.1,0.1,0.1c0,0.1,0,0.3,0.1,0.4c0.2,0.6,0.6,0.8,1.1,0.8c0.7,0,1-0.5,1-0.9c0-0.4-0.1-0.7-0.7-1.2l-0.4-0.3
			c-0.8-0.7-1.1-1.2-1.1-1.8c0-0.8,0.7-1.4,1.8-1.4c0.5,0,0.8,0.1,1,0.1c0.1,0,0.1,0,0.1,0.1c0,0.1,0,0.3,0,0.9c0,0.2,0,0.2-0.1,0.2
			c0,0-0.1,0-0.1-0.1c0-0.1,0-0.3-0.2-0.5c-0.1-0.1-0.3-0.4-0.8-0.4c-0.6,0-0.9,0.3-0.9,0.8c0,0.4,0.2,0.6,0.8,1.1l0.2,0.2
			c0.9,0.7,1.3,1.2,1.3,1.9c0,0.4-0.2,1-0.7,1.3c-0.4,0.2-0.8,0.3-1.2,0.3C58.2,57.1,57.9,57.1,57.6,56.9"/>
		<path id="XMLID_102_" class="st0" d="M62.9,55C62.8,55,62.8,55,62.9,55l-0.5,1.2c-0.1,0.2-0.1,0.4-0.1,0.5c0,0.1,0.1,0.2,0.3,0.2
			h0.1c0.1,0,0.1,0,0.1,0.1c0,0.1,0,0.1-0.1,0.1c-0.2,0-0.6,0-0.8,0c-0.1,0-0.5,0-0.9,0c-0.1,0-0.1,0-0.1-0.1c0,0,0-0.1,0.1-0.1
			c0.1,0,0.2,0,0.2,0c0.3,0,0.5-0.3,0.6-0.7l1.9-4.8c0.1-0.2,0.1-0.3,0.2-0.3c0.1,0,0.1,0.1,0.2,0.2c0.2,0.4,1.4,3.5,1.9,4.7
			c0.3,0.7,0.5,0.8,0.7,0.8c0.1,0,0.2,0,0.3,0c0.1,0,0.1,0,0.1,0.1c0,0.1-0.1,0.1-0.3,0.1c-0.3,0-0.8,0-1.4,0c-0.1,0-0.2,0-0.2-0.1
			c0,0,0-0.1,0.1-0.1c0.1,0,0.1-0.1,0.1-0.2l-0.6-1.6c0,0,0-0.1-0.1-0.1H62.9z M64.4,54.6C64.5,54.6,64.5,54.6,64.4,54.6l-0.6-1.9
			c0,0,0-0.1,0-0.1c0,0,0,0,0,0.1L63,54.6c0,0,0,0.1,0,0.1H64.4z"/>
		<path id="XMLID_101_" class="st0" d="M68.5,56c0,0.6,0.1,0.8,0.3,0.8c0.1,0,0.3,0,0.4,0c0.1,0,0.1,0,0.1,0.1
			c0,0.1-0.1,0.1-0.2,0.1c-0.5,0-0.8,0-0.9,0c-0.1,0-0.4,0-0.8,0c-0.1,0-0.2,0-0.2-0.1c0,0,0-0.1,0.1-0.1c0.1,0,0.2,0,0.3,0
			c0.2-0.1,0.2-0.3,0.2-0.9l0.1-4.5c0-0.2,0-0.3,0.1-0.3c0.1,0,0.2,0.1,0.3,0.2c0.1,0.1,1.3,1.3,2.4,2.4c0.5,0.5,1.6,1.6,1.7,1.7h0
			l-0.1-3.4c0-0.5-0.1-0.6-0.3-0.7c-0.1,0-0.3,0-0.4,0c-0.1,0-0.1,0-0.1-0.1c0-0.1,0.1-0.1,0.2-0.1c0.4,0,0.8,0,0.9,0
			c0.1,0,0.4,0,0.7,0c0.1,0,0.2,0,0.2,0.1c0,0,0,0.1-0.1,0.1c-0.1,0-0.1,0-0.2,0c-0.2,0.1-0.3,0.2-0.3,0.6l-0.1,4.8
			c0,0.2,0,0.2-0.1,0.2c-0.1,0-0.2-0.1-0.3-0.2c-0.5-0.5-1.5-1.5-2.2-2.2c-0.8-0.8-1.7-1.8-1.8-1.9h0L68.5,56z"/>
		<path id="XMLID_100_" class="st0" d="M78.1,51.3c0-0.1,0.1-0.2,0.1-0.2c0.1,0,0.1,0,0.2,0.2l2.1,4.3l2.1-4.4
			c0.1-0.1,0.1-0.2,0.2-0.2c0.1,0,0.1,0.1,0.1,0.2l0.7,4.7c0.1,0.5,0.1,0.7,0.4,0.8c0.2,0.1,0.4,0.1,0.5,0.1c0.1,0,0.1,0,0.1,0.1
			c0,0.1-0.1,0.1-0.2,0.1c-0.2,0-1.2,0-1.5,0c-0.2,0-0.2,0-0.2-0.1c0,0,0-0.1,0.1-0.1c0,0,0.1-0.1,0-0.3l-0.5-3.4h0l-1.7,3.5
			c-0.2,0.4-0.2,0.4-0.3,0.4c-0.1,0-0.1-0.2-0.3-0.4c-0.2-0.4-0.8-1.5-0.9-1.7c-0.1-0.2-0.5-1.1-0.8-1.7h0l-0.4,3c0,0.1,0,0.2,0,0.4
			c0,0.1,0.1,0.2,0.2,0.2c0.1,0,0.2,0,0.3,0c0.1,0,0.1,0,0.1,0.1c0,0.1-0.1,0.1-0.2,0.1c-0.3,0-0.7,0-0.8,0c-0.1,0-0.5,0-0.8,0
			c-0.1,0-0.1,0-0.1-0.1c0,0,0-0.1,0.1-0.1c0.1,0,0.1,0,0.2,0c0.2,0,0.3-0.3,0.3-0.6L78.1,51.3z"/>
		<path id="XMLID_97_" class="st0" d="M86.4,55C86.3,55,86.3,55,86.4,55l-0.5,1.2c-0.1,0.2-0.1,0.4-0.1,0.5c0,0.1,0.1,0.2,0.3,0.2
			h0.1c0.1,0,0.1,0,0.1,0.1c0,0.1,0,0.1-0.1,0.1c-0.2,0-0.6,0-0.8,0c-0.1,0-0.5,0-0.9,0c-0.1,0-0.1,0-0.1-0.1c0,0,0-0.1,0.1-0.1
			c0.1,0,0.2,0,0.2,0c0.3,0,0.5-0.3,0.6-0.7l1.9-4.8c0.1-0.2,0.1-0.3,0.2-0.3c0.1,0,0.1,0.1,0.2,0.2c0.2,0.4,1.4,3.5,1.9,4.7
			c0.3,0.7,0.5,0.8,0.7,0.8c0.1,0,0.2,0,0.3,0c0.1,0,0.1,0,0.1,0.1c0,0.1-0.1,0.1-0.4,0.1c-0.3,0-0.8,0-1.4,0c-0.1,0-0.2,0-0.2-0.1
			c0,0,0-0.1,0.1-0.1c0.1,0,0.1-0.1,0.1-0.2l-0.6-1.6c0,0,0-0.1-0.1-0.1H86.4z M87.9,54.6C87.9,54.6,88,54.6,87.9,54.6l-0.6-1.9
			c0,0,0-0.1,0-0.1c0,0,0,0,0,0.1l-0.7,1.9c0,0,0,0.1,0,0.1H87.9z"/>
		<path id="XMLID_94_" class="st0" d="M91.5,53.5c0-1.2,0-1.4,0-1.6c0-0.3-0.1-0.4-0.3-0.4c-0.1,0-0.2,0-0.3,0c-0.1,0-0.1,0-0.1-0.1
			c0-0.1,0.1-0.1,0.2-0.1c0.4,0,0.9,0,1,0c0.3,0,0.8,0,1.1,0c0.5,0,1,0,1.4,0.3c0.2,0.1,0.5,0.5,0.5,1c0,0.6-0.2,1.1-1,1.7
			c0.7,0.9,1.2,1.5,1.7,2c0.4,0.4,0.7,0.5,0.9,0.5c0.1,0,0.2,0,0.2,0c0.1,0,0.1,0,0.1,0.1c0,0.1-0.1,0.1-0.1,0.1h-0.7
			c-0.4,0-0.6,0-0.8-0.1c-0.3-0.2-0.6-0.5-1-1.1c-0.3-0.4-0.7-0.9-0.8-1.1c0,0-0.1-0.1-0.1-0.1l-0.7,0c0,0-0.1,0-0.1,0.1v0.1
			c0,0.7,0,1.3,0,1.6c0,0.2,0.1,0.4,0.3,0.4c0.1,0,0.3,0,0.4,0c0.1,0,0.1,0,0.1,0.1c0,0.1-0.1,0.1-0.2,0.1c-0.4,0-1,0-1.1,0
			c-0.1,0-0.6,0-0.9,0c-0.1,0-0.2,0-0.2-0.1c0,0,0-0.1,0.1-0.1c0.1,0,0.2,0,0.3,0c0.2,0,0.2-0.2,0.2-0.4c0-0.3,0-0.9,0-1.6V53.5z
			 M92.4,54c0,0.1,0,0.1,0.1,0.1c0.2,0.1,0.4,0.1,0.6,0.1c0.3,0,0.4,0,0.5-0.1c0.2-0.2,0.5-0.5,0.5-1.1c0-1.1-0.7-1.4-1.2-1.4
			c-0.2,0-0.3,0-0.4,0c0,0-0.1,0-0.1,0.1V54z"/>
		<path id="XMLID_93_" class="st0" d="M98.2,51.7l-1.1,0c-0.4,0-0.6,0.1-0.7,0.2c-0.1,0.1-0.1,0.2-0.1,0.3c0,0.1,0,0.1-0.1,0.1
			c-0.1,0-0.1,0-0.1-0.1c0-0.1,0.1-0.8,0.2-0.9c0-0.1,0-0.1,0.1-0.1c0.1,0,0.1,0.1,0.3,0.1c0.2,0,0.5,0,0.8,0h3c0.2,0,0.4,0,0.5,0
			c0.1,0,0.2,0,0.2,0c0.1,0,0.1,0,0.1,0.2c0,0.2,0,0.7,0,0.9c0,0.1,0,0.1-0.1,0.1c-0.1,0-0.1,0-0.1-0.2l0-0.1c0-0.2-0.2-0.4-0.9-0.4
			l-1,0v3.1c0,0.7,0,1.3,0,1.6c0,0.2,0.1,0.4,0.3,0.4c0.1,0,0.3,0,0.4,0c0.1,0,0.1,0,0.1,0.1c0,0.1-0.1,0.1-0.1,0.1
			c-0.5,0-1,0-1.2,0c-0.2,0-0.7,0-1,0c-0.1,0-0.1,0-0.1-0.1c0,0,0-0.1,0.1-0.1c0.1,0,0.2,0,0.3,0c0.2,0,0.2-0.2,0.2-0.4
			c0-0.3,0-0.9,0-1.6V51.7z"/>
		<path id="XMLID_92_" class="st0" d="M102.7,53.5c0-1.2,0-1.4,0-1.6c0-0.3-0.1-0.4-0.3-0.4c-0.1,0-0.2,0-0.3,0
			c-0.1,0-0.1,0-0.1-0.1c0,0,0.1-0.1,0.2-0.1c0.3,0,0.8,0,1,0c0.2,0,0.6,0,0.9,0c0.1,0,0.2,0,0.2,0.1c0,0.1,0,0.1-0.1,0.1
			c-0.1,0-0.1,0-0.2,0c-0.2,0-0.3,0.2-0.3,0.4c0,0.2,0,0.5,0,1.6v1.3c0,0.7,0,1.3,0,1.7c0,0.2,0.1,0.3,0.3,0.4c0.1,0,0.3,0,0.4,0
			c0.1,0,0.1,0,0.1,0.1c0,0.1-0.1,0.1-0.1,0.1c-0.5,0-1,0-1.2,0c-0.2,0-0.7,0-1,0c-0.1,0-0.2,0-0.2-0.1c0,0,0-0.1,0.1-0.1
			c0.1,0,0.2,0,0.3,0c0.2,0,0.2-0.2,0.2-0.4c0-0.3,0-0.9,0-1.7V53.5z"/>
		<path id="XMLID_91_" class="st0" d="M106.7,56c0,0.6,0.1,0.8,0.3,0.8c0.1,0,0.3,0,0.4,0c0.1,0,0.1,0,0.1,0.1
			c0,0.1-0.1,0.1-0.2,0.1c-0.5,0-0.8,0-0.9,0c-0.1,0-0.4,0-0.8,0c-0.1,0-0.2,0-0.2-0.1c0,0,0-0.1,0.1-0.1c0.1,0,0.2,0,0.3,0
			c0.2-0.1,0.2-0.3,0.2-0.9l0.1-4.5c0-0.2,0-0.3,0.1-0.3c0.1,0,0.1,0.1,0.3,0.2c0.1,0.1,1.2,1.3,2.4,2.4c0.5,0.5,1.6,1.6,1.7,1.7h0
			l-0.1-3.4c0-0.5-0.1-0.6-0.3-0.7c-0.1,0-0.3,0-0.4,0c-0.1,0-0.1,0-0.1-0.1c0-0.1,0.1-0.1,0.2-0.1c0.4,0,0.8,0,0.9,0
			c0.1,0,0.4,0,0.8,0c0.1,0,0.2,0,0.2,0.1c0,0,0,0.1-0.1,0.1c-0.1,0-0.1,0-0.2,0c-0.2,0.1-0.3,0.2-0.3,0.6l-0.1,4.8
			c0,0.2,0,0.2-0.1,0.2c-0.1,0-0.2-0.1-0.3-0.2c-0.5-0.5-1.5-1.5-2.2-2.2c-0.8-0.8-1.7-1.8-1.8-1.9h0L106.7,56z"/>
		<path id="XMLID_88_" class="st0" d="M116.1,53.5c0-1.2,0-1.4,0-1.6c0-0.3-0.1-0.4-0.3-0.4c-0.1,0-0.2,0-0.3,0
			c-0.1,0-0.1,0-0.1-0.1c0-0.1,0.1-0.1,0.2-0.1c0.4,0,0.9,0,1.1,0c0.2,0,0.7,0,1.2,0c1,0,2.2,0,3.1,0.9c0.4,0.4,0.7,1,0.7,1.9
			c0,1-0.4,1.7-0.8,2.1c-0.4,0.4-1.1,0.9-2.6,0.9c-0.3,0-0.6,0-0.9,0c-0.3,0-0.6,0-0.7,0c-0.1,0-0.3,0-0.4,0c-0.2,0-0.4,0-0.5,0
			c-0.1,0-0.2,0-0.2-0.1c0,0,0-0.1,0.1-0.1c0.1,0,0.2,0,0.3,0c0.2,0,0.2-0.2,0.2-0.4c0-0.3,0-0.9,0-1.6V53.5z M117.1,54.3
			c0,0.8,0,1.4,0,1.5c0,0.2,0,0.5,0.1,0.6c0.1,0.1,0.4,0.3,1,0.3c0.8,0,1.3-0.2,1.8-0.5c0.5-0.4,0.6-1.1,0.6-1.9
			c0-1-0.4-1.6-0.7-1.9c-0.7-0.7-1.6-0.8-2.2-0.8c-0.2,0-0.4,0-0.5,0.1c-0.1,0-0.1,0.1-0.1,0.2c0,0.3,0,0.9,0,1.5V54.3z"/>
		<path id="XMLID_87_" class="st0" d="M123.3,53.5c0-1.2,0-1.4,0-1.6c0-0.3-0.1-0.4-0.3-0.4c-0.1,0-0.2,0-0.3,0
			c-0.1,0-0.1,0-0.1-0.1c0-0.1,0.1-0.1,0.2-0.1c0.2,0,0.4,0,0.6,0c0.2,0,0.4,0,0.5,0c0.2,0,1.8,0,1.9,0c0.1,0,0.3,0,0.3,0
			c0,0,0.1,0,0.1,0c0,0,0,0,0,0.1c0,0.1,0,0.1-0.1,0.5c0,0.1,0,0.4,0,0.5c0,0,0,0.1-0.1,0.1c-0.1,0-0.1,0-0.1-0.1c0-0.1,0-0.2,0-0.3
			c-0.1-0.1-0.1-0.2-0.5-0.3c-0.1,0-0.9,0-1.1,0c0,0,0,0,0,0.1v1.9c0,0.1,0,0.1,0,0.1c0.2,0,1,0,1.2,0c0.2,0,0.3,0,0.4-0.1
			c0.1-0.1,0.1-0.1,0.1-0.1c0,0,0.1,0,0.1,0.1c0,0,0,0.2-0.1,0.6c0,0.2,0,0.5,0,0.5c0,0.1,0,0.1-0.1,0.1c-0.1,0-0.1,0-0.1-0.1
			c0-0.1,0-0.2,0-0.3c0-0.2-0.1-0.3-0.4-0.3c-0.1,0-0.9,0-1.1,0c0,0,0,0,0,0.1v0.6c0,0.3,0,1,0,1.2c0,0.5,0.1,0.6,0.9,0.6
			c0.2,0,0.5,0,0.7-0.1c0.2-0.1,0.3-0.3,0.3-0.6c0-0.1,0-0.1,0.1-0.1c0.1,0,0.1,0.1,0.1,0.1c0,0.2-0.1,0.7-0.1,0.8
			c-0.1,0.2-0.1,0.2-0.4,0.2c-0.6,0-1,0-1.3,0c-0.3,0-0.6,0-0.8,0c-0.1,0-0.3,0-0.4,0c-0.2,0-0.4,0-0.5,0c-0.1,0-0.2,0-0.2-0.1
			c0,0,0-0.1,0.1-0.1c0.1,0,0.2,0,0.3,0c0.2,0,0.2-0.2,0.2-0.4c0-0.3,0-0.9,0-1.6V53.5z"/>
		<path id="XMLID_86_" class="st0" d="M130.7,53.5c0-1.2,0-1.4,0-1.6c0-0.3-0.1-0.4-0.3-0.4c-0.1,0-0.2,0-0.3,0
			c-0.1,0-0.1,0-0.1-0.1c0-0.1,0.1-0.1,0.2-0.1c0.4,0,0.9,0,1.1,0c0.3,0,0.8,0,1.1,0c1,0,1.3,0.3,1.4,0.4c0.2,0.2,0.4,0.5,0.4,0.9
			c0,1.1-0.8,1.8-1.9,1.8c0,0-0.1,0-0.2,0c0,0-0.1,0-0.1-0.1c0-0.1,0.1-0.1,0.2-0.1c0.4,0,1-0.5,1-1.3c0-0.3,0-0.8-0.5-1.1
			c-0.3-0.3-0.6-0.3-0.8-0.3c-0.1,0-0.2,0-0.3,0c0,0-0.1,0.1-0.1,0.1v3c0,0.7,0,1.3,0,1.6c0,0.2,0.1,0.4,0.3,0.4c0.1,0,0.3,0,0.4,0
			c0.1,0,0.1,0,0.1,0.1c0,0.1-0.1,0.1-0.1,0.1c-0.5,0-1,0-1.2,0c-0.2,0-0.7,0-1,0c-0.1,0-0.2,0-0.2-0.1c0,0,0-0.1,0.1-0.1
			c0.1,0,0.2,0,0.3,0c0.2,0,0.2-0.2,0.2-0.4c0-0.3,0-0.9,0-1.6V53.5z"/>
		<path id="XMLID_83_" class="st0" d="M135.1,54.1c0-1.3,0.9-3,3.1-3c1.9,0,3.1,1.1,3.1,2.9c0,1.7-1.2,3.1-3.2,3.1
			C135.9,57.1,135.1,55.5,135.1,54.1 M140.2,54.3c0-1.7-1-2.8-2.2-2.8c-0.9,0-1.9,0.5-1.9,2.4c0,1.6,0.9,2.8,2.3,2.8
			C139,56.7,140.2,56.5,140.2,54.3"/>
		<path id="XMLID_80_" class="st0" d="M143,53.5c0-1.2,0-1.4,0-1.6c0-0.3-0.1-0.4-0.3-0.4c-0.1,0-0.2,0-0.3,0c-0.1,0-0.1,0-0.1-0.1
			c0-0.1,0.1-0.1,0.2-0.1c0.4,0,0.9,0,1,0c0.3,0,0.8,0,1.1,0c0.5,0,1,0,1.4,0.3c0.2,0.1,0.5,0.5,0.5,1c0,0.6-0.2,1.1-1,1.7
			c0.7,0.9,1.2,1.5,1.7,2c0.4,0.4,0.7,0.5,0.9,0.5c0.1,0,0.2,0,0.2,0c0.1,0,0.1,0,0.1,0.1c0,0.1-0.1,0.1-0.1,0.1h-0.7
			c-0.4,0-0.6,0-0.8-0.1c-0.3-0.2-0.6-0.5-1-1.1c-0.3-0.4-0.7-0.9-0.8-1.1c0,0-0.1-0.1-0.1-0.1l-0.7,0c0,0-0.1,0-0.1,0.1v0.1
			c0,0.7,0,1.3,0,1.6c0,0.2,0.1,0.4,0.3,0.4c0.1,0,0.3,0,0.4,0c0.1,0,0.1,0,0.1,0.1c0,0.1-0.1,0.1-0.2,0.1c-0.4,0-1,0-1.1,0
			c-0.1,0-0.6,0-0.9,0c-0.1,0-0.2,0-0.2-0.1c0,0,0-0.1,0.1-0.1c0.1,0,0.2,0,0.3,0c0.2,0,0.2-0.2,0.2-0.4c0-0.3,0-0.9,0-1.6V53.5z
			 M143.9,54c0,0.1,0,0.1,0.1,0.1c0.2,0.1,0.4,0.1,0.6,0.1c0.3,0,0.4,0,0.5-0.1c0.2-0.2,0.5-0.5,0.5-1.1c0-1.1-0.7-1.4-1.2-1.4
			c-0.2,0-0.3,0-0.4,0c-0.1,0-0.1,0-0.1,0.1V54z"/>
		<path id="XMLID_77_" class="st0" d="M148.9,53.5c0-1.2,0-1.4,0-1.6c0-0.3-0.1-0.4-0.3-0.4c-0.1,0-0.2,0-0.3,0
			c-0.1,0-0.1,0-0.1-0.1c0-0.1,0.1-0.1,0.2-0.1c0.4,0,0.9,0,1,0c0.3,0,0.8,0,1.1,0c0.5,0,1,0,1.4,0.3c0.2,0.1,0.5,0.5,0.5,1
			c0,0.6-0.2,1.1-1,1.7c0.7,0.9,1.2,1.5,1.7,2c0.4,0.4,0.7,0.5,0.9,0.5c0.1,0,0.2,0,0.2,0c0.1,0,0.1,0,0.1,0.1
			c0,0.1-0.1,0.1-0.1,0.1h-0.7c-0.4,0-0.6,0-0.8-0.1c-0.3-0.2-0.6-0.5-1-1.1c-0.3-0.4-0.7-0.9-0.8-1.1c0,0-0.1-0.1-0.1-0.1l-0.7,0
			c0,0-0.1,0-0.1,0.1v0.1c0,0.7,0,1.3,0,1.6c0,0.2,0.1,0.4,0.3,0.4c0.1,0,0.3,0,0.4,0c0.1,0,0.1,0,0.1,0.1c0,0.1-0.1,0.1-0.2,0.1
			c-0.4,0-1,0-1.1,0c-0.1,0-0.6,0-0.9,0c-0.1,0-0.2,0-0.2-0.1c0,0,0-0.1,0.1-0.1c0.1,0,0.2,0,0.3,0c0.2,0,0.2-0.2,0.2-0.4
			c0-0.3,0-0.9,0-1.6V53.5z M149.8,54c0,0.1,0,0.1,0.1,0.1c0.2,0.1,0.4,0.1,0.6,0.1c0.3,0,0.4,0,0.5-0.1c0.2-0.2,0.4-0.5,0.4-1.1
			c0-1.1-0.7-1.4-1.2-1.4c-0.2,0-0.3,0-0.4,0c-0.1,0-0.1,0-0.1,0.1V54z"/>
		<path id="XMLID_76_" class="st0" d="M154.9,53.5c0-1.2,0-1.4,0-1.6c0-0.3-0.1-0.4-0.3-0.4c-0.1,0-0.2,0-0.3,0
			c-0.1,0-0.1,0-0.1-0.1c0-0.1,0.1-0.1,0.2-0.1c0.2,0,0.4,0,0.6,0c0.2,0,0.4,0,0.5,0c0.2,0,1.8,0,1.9,0c0.1,0,0.3,0,0.3,0
			c0,0,0.1,0,0.1,0c0,0,0,0,0,0.1c0,0.1,0,0.1-0.1,0.5c0,0.1,0,0.4,0,0.5c0,0,0,0.1-0.1,0.1c-0.1,0-0.1,0-0.1-0.1c0-0.1,0-0.2,0-0.3
			c-0.1-0.1-0.1-0.2-0.5-0.3c-0.1,0-0.9,0-1.1,0c0,0-0.1,0-0.1,0.1v1.9c0,0.1,0,0.1,0.1,0.1c0.2,0,1,0,1.2,0c0.2,0,0.3,0,0.4-0.1
			c0.1-0.1,0.1-0.1,0.1-0.1c0,0,0.1,0,0.1,0.1c0,0,0,0.2-0.1,0.6c0,0.2,0,0.5,0,0.5c0,0.1,0,0.1-0.1,0.1c0,0-0.1,0-0.1-0.1
			c0-0.1,0-0.2,0-0.3c0-0.2-0.1-0.3-0.4-0.3c-0.1,0-0.9,0-1.1,0c0,0,0,0,0,0.1v0.6c0,0.3,0,1,0,1.2c0,0.5,0.1,0.6,0.9,0.6
			c0.2,0,0.5,0,0.7-0.1c0.2-0.1,0.3-0.3,0.3-0.6c0-0.1,0-0.1,0.1-0.1c0.1,0,0.1,0.1,0.1,0.1c0,0.2-0.1,0.7-0.1,0.8
			c-0.1,0.2-0.1,0.2-0.4,0.2c-0.6,0-1,0-1.3,0c-0.3,0-0.6,0-0.8,0c-0.1,0-0.3,0-0.4,0c-0.2,0-0.4,0-0.5,0c-0.1,0-0.1,0-0.1-0.1
			c0,0,0-0.1,0.1-0.1c0.1,0,0.2,0,0.3,0c0.2,0,0.2-0.2,0.2-0.4c0-0.3,0-0.9,0-1.6V53.5z"/>
		<path id="XMLID_75_" class="st0" d="M159.4,56.9c-0.1-0.1-0.2-0.1-0.2-0.3c0-0.4,0-0.9,0-1c0-0.1,0-0.2,0.1-0.2
			c0.1,0,0.1,0.1,0.1,0.1c0,0.1,0,0.3,0.1,0.4c0.2,0.6,0.6,0.8,1.1,0.8c0.7,0,1-0.5,1-0.9c0-0.4-0.1-0.7-0.7-1.2l-0.3-0.3
			c-0.8-0.7-1.1-1.2-1.1-1.8c0-0.8,0.7-1.4,1.8-1.4c0.5,0,0.8,0.1,1,0.1c0.1,0,0.1,0,0.1,0.1c0,0.1,0,0.3,0,0.9c0,0.2,0,0.2-0.1,0.2
			c-0.1,0-0.1,0-0.1-0.1c0-0.1,0-0.3-0.2-0.5c-0.1-0.1-0.3-0.4-0.8-0.4c-0.6,0-0.9,0.3-0.9,0.8c0,0.4,0.2,0.6,0.8,1.1l0.2,0.2
			c0.9,0.7,1.3,1.2,1.3,1.9c0,0.4-0.2,1-0.7,1.3c-0.4,0.2-0.8,0.3-1.2,0.3C160.1,57.1,159.7,57.1,159.4,56.9"/>
		<path id="XMLID_74_" class="st0" d="M57.7,47.2c0-0.5,0-0.6,0-0.7c0-0.1,0-0.2-0.1-0.2c0,0-0.1,0-0.1,0c0,0-0.1,0-0.1,0
			c0,0,0,0,0.1,0c0.2,0,0.3,0,0.4,0c0.1,0,0.3,0,0.4,0c0,0,0.1,0,0.1,0c0,0,0,0,0,0c0,0-0.1,0-0.1,0c-0.1,0-0.1,0.1-0.1,0.2
			c0,0.1,0,0.2,0,0.7v0.5c0,0.5,0.1,0.7,0.2,0.8c0.1,0.1,0.3,0.1,0.4,0.1c0.1,0,0.3,0,0.4-0.2c0.2-0.2,0.2-0.5,0.2-0.8v-0.4
			c0-0.5,0-0.6,0-0.7c0-0.1,0-0.2-0.1-0.2c0,0-0.1,0-0.1,0c0,0-0.1,0-0.1,0c0,0,0,0,0.1,0c0.2,0,0.3,0,0.3,0c0,0,0.2,0,0.3,0
			c0,0,0.1,0,0.1,0c0,0,0,0-0.1,0c0,0-0.1,0-0.1,0c-0.1,0-0.1,0.1-0.1,0.2c0,0.1,0,0.2,0,0.7v0.3c0,0.4,0,0.7-0.3,1
			c-0.2,0.2-0.4,0.2-0.6,0.2c-0.2,0-0.4,0-0.7-0.2c-0.2-0.1-0.3-0.4-0.3-0.8V47.2z"/>
		<path id="XMLID_73_" class="st0" d="M66.4,48.2c0,0.2,0,0.3,0.1,0.4c0,0,0.1,0,0.2,0c0,0,0,0,0,0c0,0,0,0-0.1,0
			c-0.2,0-0.3,0-0.4,0c0,0-0.2,0-0.3,0c0,0-0.1,0-0.1,0c0,0,0,0,0,0c0,0,0.1,0,0.1,0c0.1,0,0.1-0.1,0.1-0.4l0-1.9c0-0.1,0-0.1,0-0.1
			c0,0,0.1,0,0.1,0.1c0,0,0.5,0.6,0.9,1c0.2,0.2,0.6,0.7,0.7,0.7h0l0-1.4c0-0.2,0-0.3-0.1-0.3c0,0-0.1,0-0.2,0c0,0,0,0,0,0
			c0,0,0,0,0.1,0c0.2,0,0.3,0,0.4,0c0,0,0.1,0,0.3,0c0,0,0.1,0,0.1,0c0,0,0,0,0,0c0,0-0.1,0-0.1,0c-0.1,0-0.1,0.1-0.1,0.3l0,2
			c0,0.1,0,0.1,0,0.1c0,0-0.1,0-0.1-0.1c-0.2-0.2-0.6-0.6-0.9-0.9c-0.3-0.3-0.7-0.7-0.7-0.8h0L66.4,48.2z"/>
		<path id="XMLID_72_" class="st0" d="M74.9,47.2c0-0.5,0-0.6,0-0.7c0-0.1,0-0.2-0.1-0.2c0,0-0.1,0-0.1,0c0,0-0.1,0-0.1,0
			c0,0,0,0,0.1,0c0.1,0,0.3,0,0.4,0c0.1,0,0.3,0,0.4,0c0,0,0.1,0,0.1,0c0,0,0,0-0.1,0c0,0-0.1,0-0.1,0c-0.1,0-0.1,0.1-0.1,0.2
			c0,0.1,0,0.2,0,0.7v0.6c0,0.3,0,0.6,0,0.7c0,0.1,0,0.1,0.1,0.2c0,0,0.1,0,0.2,0c0,0,0,0,0,0c0,0,0,0-0.1,0c-0.2,0-0.4,0-0.5,0
			c-0.1,0-0.3,0-0.4,0c0,0-0.1,0-0.1,0c0,0,0,0,0,0c0,0,0.1,0,0.1,0c0.1,0,0.1-0.1,0.1-0.2c0-0.1,0-0.4,0-0.7V47.2z"/>
		<path id="XMLID_71_" class="st0" d="M81.8,46.6c-0.1-0.2-0.1-0.2-0.2-0.2c0,0-0.1,0-0.1,0c0,0,0,0,0,0c0,0,0,0,0.1,0
			c0.2,0,0.3,0,0.4,0c0.1,0,0.2,0,0.4,0c0,0,0.1,0,0.1,0c0,0,0,0,0,0c-0.1,0-0.1,0-0.1,0c0,0,0,0,0,0.1c0,0,0,0.1,0.1,0.2l0.5,1.4h0
			c0.1-0.3,0.5-1.4,0.6-1.6c0,0,0-0.1,0-0.1c0,0,0,0,0-0.1c0,0-0.1,0-0.1,0c0,0-0.1,0-0.1,0c0,0,0,0,0.1,0c0.2,0,0.3,0,0.3,0
			c0.1,0,0.2,0,0.3,0c0,0,0.1,0,0.1,0c0,0,0,0,0,0c0,0-0.1,0-0.1,0c0,0-0.1,0.1-0.2,0.3c-0.1,0.3-0.2,0.5-0.4,0.9
			c-0.2,0.5-0.3,0.8-0.4,1c-0.1,0.2-0.1,0.2-0.1,0.2c0,0-0.1,0-0.1-0.2L81.8,46.6z"/>
		<path id="XMLID_70_" class="st0" d="M90.1,47.2c0-0.5,0-0.6,0-0.7c0-0.1,0-0.2-0.1-0.2c0,0-0.1,0-0.1,0c0,0,0,0,0,0c0,0,0,0,0.1,0
			c0.1,0,0.2,0,0.2,0c0.1,0,0.1,0,0.2,0c0.1,0,0.7,0,0.7,0c0.1,0,0.1,0,0.1,0c0,0,0,0,0.1,0c0,0,0,0,0,0s0,0.1,0,0.2
			c0,0,0,0.2,0,0.2c0,0,0,0,0,0c0,0,0,0,0,0c0,0,0-0.1,0-0.1c0-0.1-0.1-0.1-0.2-0.1c0,0-0.4,0-0.4,0c0,0,0,0,0,0v0.8c0,0,0,0,0,0
			c0.1,0,0.4,0,0.5,0c0.1,0,0.1,0,0.1,0c0,0,0-0.1,0-0.1c0,0,0,0,0,0c0,0,0,0.1,0,0.2c0,0.1,0,0.2,0,0.2c0,0,0,0.1,0,0.1
			c0,0,0,0,0,0c0,0,0-0.1,0-0.1c0-0.1-0.1-0.1-0.2-0.1c-0.1,0-0.4,0-0.4,0c0,0,0,0,0,0v0.3c0,0.1,0,0.4,0,0.5c0,0.2,0.1,0.3,0.4,0.3
			c0.1,0,0.2,0,0.3,0c0.1,0,0.1-0.1,0.1-0.2c0,0,0-0.1,0-0.1c0,0,0,0,0,0.1c0,0.1,0,0.3,0,0.4c0,0.1,0,0.1-0.2,0.1
			c-0.2,0-0.4,0-0.5,0c-0.1,0-0.2,0-0.3,0c0,0-0.1,0-0.2,0c-0.1,0-0.1,0-0.2,0c0,0-0.1,0-0.1,0c0,0,0,0,0,0c0.1,0,0.1,0,0.1,0
			c0.1,0,0.1-0.1,0.1-0.2c0-0.1,0-0.4,0-0.7V47.2z"/>
		<path id="XMLID_67_" class="st0" d="M97.8,47.2c0-0.5,0-0.6,0-0.7c0-0.1,0-0.2-0.1-0.2c0,0-0.1,0-0.1,0c0,0-0.1,0-0.1,0
			c0,0,0,0,0.1,0c0.2,0,0.3,0,0.4,0c0.1,0,0.3,0,0.4,0c0.2,0,0.4,0,0.5,0.1c0.1,0.1,0.2,0.2,0.2,0.4c0,0.2-0.1,0.5-0.4,0.7
			c0.3,0.4,0.5,0.6,0.6,0.8c0.2,0.2,0.3,0.2,0.3,0.2c0,0,0.1,0,0.1,0c0,0,0,0,0,0c0,0,0,0-0.1,0h-0.3c-0.2,0-0.2,0-0.3-0.1
			c-0.1-0.1-0.2-0.2-0.4-0.5c-0.1-0.2-0.3-0.4-0.3-0.4c0,0,0,0-0.1,0l-0.3,0c0,0,0,0,0,0v0c0,0.3,0,0.5,0,0.7c0,0.1,0,0.2,0.1,0.2
			c0,0,0.1,0,0.1,0c0,0,0,0,0,0c0,0,0,0-0.1,0c-0.2,0-0.4,0-0.4,0c-0.1,0-0.3,0-0.4,0c0,0-0.1,0-0.1,0c0,0,0,0,0,0c0,0,0.1,0,0.1,0
			c0.1,0,0.1-0.1,0.1-0.2c0-0.1,0-0.4,0-0.7V47.2z M98.2,47.4C98.2,47.5,98.2,47.5,98.2,47.4c0.1,0.1,0.2,0.1,0.3,0.1
			c0.1,0,0.2,0,0.2-0.1c0.1-0.1,0.2-0.2,0.2-0.5c0-0.5-0.3-0.6-0.5-0.6c-0.1,0-0.1,0-0.2,0c0,0,0,0,0,0V47.4z"/>
		<path id="XMLID_66_" class="st0" d="M105.7,48.6c0,0-0.1,0-0.1-0.1c0-0.2,0-0.4,0-0.4c0,0,0-0.1,0-0.1c0,0,0,0,0,0.1
			c0,0,0,0.1,0,0.2c0.1,0.2,0.2,0.3,0.4,0.3c0.3,0,0.4-0.2,0.4-0.4c0-0.2,0-0.3-0.3-0.5l-0.1-0.1c-0.3-0.3-0.4-0.5-0.4-0.8
			c0-0.4,0.3-0.6,0.7-0.6c0.2,0,0.3,0,0.4,0.1c0,0,0,0,0,0c0,0,0,0.1,0,0.4c0,0.1,0,0.1,0,0.1c0,0,0,0,0-0.1c0,0,0-0.1-0.1-0.2
			c0-0.1-0.1-0.2-0.3-0.2c-0.2,0-0.4,0.1-0.4,0.3c0,0.1,0.1,0.3,0.3,0.5l0.1,0.1c0.4,0.3,0.5,0.5,0.5,0.8c0,0.2-0.1,0.4-0.3,0.6
			c-0.1,0.1-0.3,0.1-0.5,0.1C106,48.7,105.9,48.7,105.7,48.6"/>
		<path id="XMLID_65_" class="st0" d="M113.5,47.2c0-0.5,0-0.6,0-0.7c0-0.1,0-0.2-0.1-0.2c0,0-0.1,0-0.1,0c0,0,0,0,0,0
			c0,0,0,0,0.1,0c0.1,0,0.3,0,0.4,0c0.1,0,0.3,0,0.4,0c0,0,0.1,0,0.1,0c0,0,0,0,0,0c0,0-0.1,0-0.1,0c-0.1,0-0.1,0.1-0.1,0.2
			c0,0.1,0,0.2,0,0.7v0.6c0,0.3,0,0.6,0,0.7c0,0.1,0,0.1,0.1,0.2c0,0,0.1,0,0.2,0c0,0,0,0,0,0c0,0,0,0-0.1,0c-0.2,0-0.4,0-0.5,0
			c-0.1,0-0.3,0-0.4,0c0,0-0.1,0-0.1,0c0,0,0,0,0.1,0c0,0,0.1,0,0.1,0c0.1,0,0.1-0.1,0.1-0.2c0-0.1,0-0.4,0-0.7V47.2z"/>
		<path id="XMLID_62_" class="st0" d="M120.7,47.2c0-0.5,0-0.6,0-0.7c0-0.1,0-0.2-0.1-0.2c0,0-0.1,0-0.1,0c0,0-0.1,0-0.1,0
			c0,0,0,0,0.1,0c0.2,0,0.3,0,0.4,0c0.1,0,0.3,0,0.5,0c0.4,0,0.9,0,1.2,0.4c0.2,0.2,0.3,0.4,0.3,0.8c0,0.4-0.2,0.7-0.3,0.9
			c-0.1,0.1-0.4,0.4-1,0.4c-0.1,0-0.2,0-0.3,0c-0.1,0-0.2,0-0.3,0c0,0-0.1,0-0.2,0c-0.1,0-0.1,0-0.2,0c0,0-0.1,0-0.1,0
			c0,0,0,0,0.1,0c0,0,0.1,0,0.1,0c0.1,0,0.1-0.1,0.1-0.2c0-0.1,0-0.4,0-0.7V47.2z M121,47.5c0,0.3,0,0.6,0,0.6c0,0.1,0,0.2,0,0.2
			c0,0.1,0.2,0.1,0.4,0.1c0.3,0,0.5-0.1,0.7-0.2c0.2-0.2,0.2-0.5,0.2-0.8c0-0.4-0.2-0.7-0.3-0.8c-0.3-0.3-0.6-0.3-0.8-0.3
			c-0.1,0-0.2,0-0.2,0c0,0,0,0,0,0.1c0,0.1,0,0.4,0,0.6V47.5z"/>
		<path id="XMLID_59_" class="st0" d="M129.4,47.8C129.4,47.8,129.4,47.8,129.4,47.8l-0.2,0.5c0,0.1,0,0.2,0,0.2
			c0,0.1,0,0.1,0.1,0.1h0c0,0,0,0,0,0c0,0,0,0,0,0c-0.1,0-0.2,0-0.3,0c0,0-0.2,0-0.4,0c0,0-0.1,0-0.1,0c0,0,0,0,0,0c0,0,0.1,0,0.1,0
			c0.1,0,0.2-0.1,0.3-0.3l0.8-2c0-0.1,0.1-0.1,0.1-0.1c0,0,0,0,0.1,0.1c0.1,0.2,0.5,1.5,0.7,2c0.1,0.3,0.2,0.3,0.3,0.3
			c0,0,0.1,0,0.1,0c0,0,0,0,0,0c0,0,0,0-0.1,0c-0.1,0-0.3,0-0.6,0c-0.1,0-0.1,0-0.1,0c0,0,0,0,0,0c0,0,0,0,0-0.1l-0.2-0.7
			c0,0,0,0,0,0H129.4z M130,47.7C130.1,47.7,130.1,47.7,130,47.7l-0.3-0.8c0,0,0,0,0,0c0,0,0,0,0,0l-0.3,0.8c0,0,0,0,0,0H130z"/>
		<path id="XMLID_56_" class="st0" d="M137.2,47.2c0-0.5,0-0.6,0-0.7c0-0.1,0-0.2-0.1-0.2c0,0-0.1,0-0.1,0c0,0,0,0,0,0
			c0,0,0,0,0.1,0c0.2,0,0.3,0,0.4,0c0.1,0,0.3,0,0.5,0c0.4,0,0.9,0,1.2,0.4c0.2,0.2,0.3,0.4,0.3,0.8c0,0.4-0.2,0.7-0.3,0.9
			c-0.1,0.1-0.4,0.4-1,0.4c-0.1,0-0.2,0-0.3,0c-0.1,0-0.2,0-0.3,0c0,0-0.1,0-0.2,0c-0.1,0-0.1,0-0.2,0c0,0-0.1,0-0.1,0c0,0,0,0,0,0
			c0,0,0.1,0,0.1,0c0.1,0,0.1-0.1,0.1-0.2c0-0.1,0-0.4,0-0.7V47.2z M137.6,47.5c0,0.3,0,0.6,0,0.6c0,0.1,0,0.2,0,0.2
			c0,0.1,0.2,0.1,0.4,0.1c0.3,0,0.5-0.1,0.7-0.2c0.2-0.2,0.2-0.5,0.2-0.8c0-0.4-0.2-0.7-0.3-0.8c-0.3-0.3-0.6-0.3-0.8-0.3
			c-0.1,0-0.2,0-0.2,0c0,0,0,0,0,0.1c0,0.1,0,0.4,0,0.6V47.5z"/>
		<path id="XMLID_53_" class="st0" d="M152.6,47.2c0-0.5,0-0.6,0-0.7c0-0.1,0-0.2-0.1-0.2c0,0-0.1,0-0.1,0c0,0,0,0,0,0
			c0,0,0,0,0.1,0c0.2,0,0.3,0,0.4,0c0.1,0,0.3,0,0.5,0c0.4,0,0.9,0,1.2,0.4c0.2,0.2,0.3,0.4,0.3,0.8c0,0.4-0.2,0.7-0.3,0.9
			c-0.1,0.1-0.5,0.4-1,0.4c-0.1,0-0.2,0-0.3,0c-0.1,0-0.2,0-0.3,0c0,0-0.1,0-0.2,0c-0.1,0-0.1,0-0.2,0c0,0-0.1,0-0.1,0c0,0,0,0,0,0
			c0,0,0.1,0,0.1,0c0.1,0,0.1-0.1,0.1-0.2c0-0.1,0-0.4,0-0.7V47.2z M153,47.5c0,0.3,0,0.6,0,0.6c0,0.1,0,0.2,0,0.2
			c0,0.1,0.2,0.1,0.4,0.1c0.3,0,0.5-0.1,0.7-0.2c0.2-0.2,0.2-0.5,0.2-0.8c0-0.4-0.2-0.7-0.3-0.8c-0.3-0.3-0.6-0.3-0.8-0.3
			c-0.1,0-0.2,0-0.2,0c0,0,0,0,0,0.1v0.6V47.5z"/>
		<path id="XMLID_52_" class="st0" d="M161.2,47.2c0-0.5,0-0.6,0-0.7c0-0.1,0-0.2-0.1-0.2c0,0-0.1,0-0.1,0c0,0-0.1,0-0.1,0
			c0,0,0,0,0.1,0c0.1,0,0.2,0,0.2,0c0.1,0,0.1,0,0.2,0c0.1,0,0.7,0,0.7,0c0.1,0,0.1,0,0.1,0c0,0,0,0,0,0c0,0,0,0,0,0s0,0.1,0,0.2
			c0,0,0,0.2,0,0.2c0,0,0,0,0,0c0,0,0,0,0,0c0,0,0-0.1,0-0.1c0-0.1,0-0.1-0.2-0.1c-0.1,0-0.4,0-0.4,0c0,0,0,0,0,0v0.8c0,0,0,0,0,0
			c0.1,0,0.4,0,0.5,0c0.1,0,0.1,0,0.1,0c0,0,0-0.1,0-0.1c0,0,0,0,0,0c0,0,0,0.1,0,0.2c0,0.1,0,0.2,0,0.2c0,0,0,0.1,0,0.1
			c0,0,0,0,0,0c0,0,0-0.1,0-0.1c0-0.1-0.1-0.1-0.2-0.1c-0.1,0-0.4,0-0.4,0c0,0,0,0,0,0v0.3c0,0.1,0,0.4,0,0.5c0,0.2,0.1,0.3,0.4,0.3
			c0.1,0,0.2,0,0.3,0c0.1,0,0.1-0.1,0.1-0.2c0,0,0-0.1,0-0.1c0,0,0,0,0,0.1c0,0.1,0,0.3,0,0.4c0,0.1,0,0.1-0.2,0.1
			c-0.2,0-0.4,0-0.5,0c-0.1,0-0.2,0-0.3,0c0,0-0.1,0-0.2,0c-0.1,0-0.1,0-0.2,0c0,0-0.1,0-0.1,0c0,0,0,0,0,0c0,0,0.1,0,0.1,0
			c0.1,0,0.1-0.1,0.1-0.2c0-0.1,0-0.4,0-0.7V47.2z"/>
		<path id="XMLID_48_" class="st0" d="M47.4,39.9l0-28.7c0,0-0.8,1.3-1.2,1.6c-0.4,0.4-3,3-8.8,3c-7.7,0.1-12-3.2-12-3.2l0,0
			l0.9-1.9l3,1l-1-3l2.8-1.4L28.3,6l1-3l-3,1L25,1.3l-1.4,2.8l-3-1l1,3l-2.8,1.4l2.8,1.4l-1,3l3-1l0.9,1.9
			c-0.3,0.2-4.9,3.3-12.1,3.3c-6,0-8.5-2.7-8.8-3c-0.3-0.3-1.2-1.6-1.2-1.6l0,28.9c0,0.3-0.2,8.1,3.9,13.4c2.8,3.6,8,7,16.5,10.9
			c1.1,0.5,1.6,1.2,1.6,1.2l0.5,0.6l0.6-0.6c0,0,0.5-0.6,1.6-1.2c8.4-3.9,13.7-7.4,16.4-10.9c3.7-4.7,3.9-11.6,3.9-13.2
			C47.4,40.1,47.4,40,47.4,39.9 M21.5,10.9l0.8-2.4l-2.3-1.1l2.3-1.1l-0.8-2.4l2.4,0.8L25,2.5l1.1,2.2l2.4-0.8l-0.8,2.4l2.3,1.1
			l-2.3,1.1l0.8,2.4L26.1,10L25,12.3L23.9,10L21.5,10.9z M42.4,52.6c-2.6,3.4-7.7,6.7-16,10.5l-0.1,0c-0.6,0.4-1.1,0.7-1.5,1
			c-0.3-0.3-0.9-0.7-1.6-1C15.1,59.3,10,56,7.4,52.6C4,48.2,3.8,41.5,3.8,40.3c0-0.1,0-22.8,0-25.5c1.5,1,4.2,2.5,8.6,2.4
			c6.7,0,11.2-2.5,12.5-3.3c1.3,0.8,5.5,3.3,12.5,3.3c4.3,0,7.1-1.5,8.6-2.5c0,2.6,0,25.2,0,25.3C46,41.4,45.8,48.2,42.4,52.6"/>
		<path id="XMLID_43_" class="st0" d="M37.9,36.9l0-11H12.1v10.9c0,3,0,8.6,6.6,12.1l6.2,3.5l0.2-0.1l6.1-3.4
			C37.9,45.3,37.9,40.1,37.9,36.9 M37.1,37.5c0,1.8-0.1,4.2-1.5,6.4l-8.9-6.7h5c0.7,0.1,1.2,0.7,1.2,1.4c0,0.6-0.4,1.2-1,1.3
			c1.5-0.3,2.6-1.4,2.9-2.9c0.5-0.1,0.9-0.5,0.9-1c0,0-0.4,0-0.4-0.1H25l1.2,0.9V46c0,0.8,0.6,1.4,1.4,1.4c0.6,0,1.1-0.4,1.3-1
			c-0.3,1.5-1.4,2.7-2.9,3c-0.1,0.5-0.5,0.9-1,0.9v1.2c-0.5-0.3-5.9-3.3-5.9-3.3c-2.2-1.2-3.6-2.5-4.6-4l8.8-7h-5.4
			c-0.7,0.1-1.2,0.7-1.2,1.4c0,0.6,0.4,1.2,1,1.3c-1.5-0.3-2.6-1.4-3-2.9c-0.5-0.1-0.9-0.5-0.9-1V36h-1v-9.3H13l10.5,8.1h-4.8
			c-0.8,0-2-0.7-2-1.5c0-0.6,0.4-1.1,1-1.3c-1.5,0.3-2.6,1.5-2.9,3c-0.5,0.1-0.8,0.5-0.9,1h11l-1.2-1v-3.3c-0.1-0.7-0.7-1.2-1.4-1.2
			c-0.6,0-1.1,0.4-1.3,1c0.3-1.6,1.4-2.7,2.8-3c0.1-0.5,0.5-0.9,1-0.9l0,0v-0.9h12.1v0.1l-10.6,8h5.1c0.8,0,1.4-0.7,1.4-1.5
			c0-0.6-0.4-1.1-1-1.3c1.5,0.3,2.6,1.5,2.9,3c0.5,0.1,0.8,0.5,0.9,1h1.3V37.5z M26.1,31.9L26.1,31.9c0-0.8,0.6-1.4,1.4-1.4
			c0.6,0,1.1,0.4,1.3,1c-0.3-1.5-1.4-2.7-2.9-3c-0.1-0.5-0.5-0.9-1-0.9V36l1.2-0.9V31.9z M23.7,46.2c-0.1,0.7-0.7,1.2-1.4,1.2
			c-0.6,0-1.1-0.4-1.3-1c0.3,1.6,1.4,2.7,2.8,3c0.1,0.5,0.5,0.9,1,0.9l0,0V36l-1.2,1V46.2z"/>
		<path id="XMLID_42_" class="st0" d="M9.9,18.9h1.1l-1.2,5.4H8.4l-1.2-5.4h1.1L9,22.3C9,22.7,9.1,23,9.1,23.3
			c0,0.2,0.1,0.3,0.1,0.5h0c0-0.2,0-0.3,0.1-0.5c0-0.3,0.1-0.6,0.1-0.9L9.9,18.9z"/>
		<polygon id="XMLID_41_" class="st0" points="13.3,24.3 13.3,18.9 16.3,18.9 16.3,19.7 14.4,19.7 14.4,21 16.1,21 16.1,21.8 
			14.4,21.8 14.4,23.5 16.3,23.5 16.3,24.3 		"/>
		<path id="XMLID_38_" class="st0" d="M19.8,22v2.3h-1.1v-5.4h2c0.9,0,1.6,0.3,1.6,1.3c0,0.6-0.1,1.2-0.9,1.3v0
			c0.6,0.1,0.8,0.5,0.8,1c0,0.2,0,1.6,0.2,1.7v0.1h-1.2c-0.1-0.3-0.1-1-0.1-1.4c0-0.3,0-0.8-0.4-0.9C20.6,22,20.3,22,20,22H19.8z
			 M19.8,21.2h0.8c0.4,0,0.6-0.2,0.6-0.8c0-0.6-0.3-0.7-0.7-0.7h-0.8V21.2z"/>
		<rect id="XMLID_37_" x="25" y="18.9" class="st0" width="1.1" height="5.4"/>
		<polygon id="XMLID_36_" class="st0" points="28.3,18.9 31.8,18.9 31.8,19.7 30.6,19.7 30.6,24.3 29.6,24.3 29.6,19.7 28.3,19.7 		
			"/>
		<path id="XMLID_33_" class="st0" d="M33.3,24.3l1.3-5.4H36l1.3,5.4h-1.1l-0.3-1.4h-1.2l-0.3,1.4H33.3z M34.8,22.1h0.9l-0.3-1.5
			c0-0.3-0.1-0.5-0.1-0.8c0-0.1,0-0.3,0-0.4h0c0,0.1,0,0.2,0,0.4c0,0.3-0.1,0.5-0.1,0.8L34.8,22.1z"/>
		<path id="XMLID_32_" class="st0" d="M41.7,20.5c0-0.5,0-1-0.6-1c-0.3,0-0.6,0.1-0.6,0.5c0,0.4,0.3,0.6,0.6,0.8
			c0.3,0.2,1,0.6,1.3,0.9c0.4,0.3,0.5,0.7,0.5,1.1c0,1-0.7,1.6-1.7,1.6c-1.3,0-1.7-0.7-1.7-1.7v-0.4h1v0.3c0,0.5,0.1,0.9,0.7,0.9
			c0.4,0,0.7-0.2,0.7-0.6c0-0.3-0.1-0.5-0.4-0.7c-0.5-0.4-1.2-0.7-1.7-1.2c-0.2-0.2-0.3-0.5-0.3-0.8c0-0.9,0.5-1.4,1.6-1.4
			c1.7,0,1.6,1.2,1.6,1.8H41.7z"/>
		<polygon id="XMLID_31_" class="st0" points="5.4,32.1 11,32.1 10.9,33.1 6.2,33.1 6.2,35 5.4,35 		"/>
		<polygon id="XMLID_30_" class="st0" points="5.1,37.5 10.7,37.4 10.7,38.5 5.1,38.5 		"/>
		<path id="XMLID_26_" class="st0" d="M5.2,41.5l5.5-0.8l0.2,1.7c0.1,0.4,0.1,0.9-0.2,1.2c-0.3,0.3-0.6,0.4-1,0.4
			c-0.5,0.1-1,0-1.2-0.5l0,0c0,0.6-0.4,0.9-1.2,1c-0.2,0-0.5,0.1-0.7,0c-0.7-0.1-1.1-0.5-1.2-1.2L5.2,41.5z M6.2,42.7
			c0,0.2,0,0.4,0.1,0.6c0.2,0.3,0.5,0.2,0.8,0.2c0.6-0.1,0.8-0.2,0.7-0.9l-0.1-0.4l-1.7,0.2L6.2,42.7z M8.7,42.3
			c0,0.3,0.1,0.6,0.3,0.7c0.2,0.1,0.4,0.1,0.6,0c0.4-0.1,0.6-0.2,0.6-0.6l-0.1-0.5l-1.4,0.2L8.7,42.3z"/>
		<polygon id="XMLID_25_" class="st0" points="7.1,48 11.9,45.4 13.1,48.1 12.5,48.5 11.6,46.7 10.4,47.4 11.2,49 10.5,49.3 
			9.7,47.8 8.3,48.5 9.1,50.3 8.4,50.7 		"/>
		<path id="XMLID_22_" class="st0" d="M13.5,52.6l-1.4,1.9l-0.8-0.6l3.3-4.3l1.5,1.2c0.7,0.5,1,1.2,0.4,2c-0.3,0.5-0.9,0.9-1.5,0.5
			l0,0c0.4,0.4,0.3,0.8,0,1.3c-0.1,0.2-1,1.2-0.9,1.5l-0.1,0.1l-0.9-0.7c0.1-0.4,0.5-0.9,0.8-1.2c0.2-0.3,0.5-0.6,0.3-0.9
			c-0.2-0.2-0.4-0.4-0.6-0.6L13.5,52.6z M14,51.9l0.6,0.5c0.3,0.2,0.6,0.2,1-0.3c0.4-0.5,0.2-0.7-0.1-1l-0.6-0.5L14,51.9z"/>
		<path id="XMLID_19_" class="st0" d="M17,57.9l3.4-4.5l1.2,0.6l-1.1,5.6l-1-0.5l0.3-1.4l-1.1-0.5L18,58.3L17,57.9z M19.3,56.5
			l0.8,0.4l0.4-1.6c0.1-0.3,0.1-0.5,0.2-0.8c0-0.1,0.1-0.2,0.1-0.3l0,0c-0.1,0.1-0.1,0.2-0.2,0.3c-0.1,0.2-0.2,0.4-0.4,0.7
			L19.3,56.5z"/>
		<path id="XMLID_15_" class="st0" d="M24.9,60l-0.7-5.6l1.7-0.2c0.4-0.1,0.9-0.1,1.2,0.3c0.3,0.3,0.4,0.6,0.4,1
			c0.1,0.5,0,1-0.5,1.3l0,0c0.6,0,0.9,0.5,1,1.2c0,0.2,0,0.5,0,0.7c-0.1,0.7-0.5,1.1-1.2,1.2L24.9,60z M26.1,59c0.2,0,0.4,0,0.6-0.1
			c0.3-0.2,0.3-0.5,0.2-0.8c-0.1-0.6-0.2-0.8-0.9-0.8l-0.4,0l0.2,1.7L26.1,59z M25.7,56.5c0.3,0,0.6-0.1,0.7-0.3
			c0.1-0.1,0.1-0.4,0-0.6c0-0.4-0.2-0.6-0.6-0.6l-0.5,0.1l0.2,1.5L25.7,56.5z"/>
		<polygon id="XMLID_14_" class="st0" points="31.6,58.4 29.5,53.3 30.5,52.9 32.6,58 		"/>
		<polygon id="XMLID_13_" class="st0" points="32.3,52 35.1,50 35.5,50.7 34.5,51.4 37.1,55.3 36.2,55.9 33.7,52 32.8,52.7 		"/>
		<path id="XMLID_12_" class="st0" d="M39.2,43.9l0.4-1l4.7,2.9L43.8,47l-5.5-0.7l0.4-1l3.5,0.6c0.3,0.1,0.6,0.1,0.9,0.2
			c0.1,0,0.3,0.1,0.4,0.1v0c-0.1-0.1-0.3-0.1-0.4-0.2c-0.3-0.1-0.6-0.3-0.8-0.4L39.2,43.9z"/>
		<path id="XMLID_9_" class="st0" d="M41.7,41.7c-1.4-0.2-2.5-0.4-2.3-2.1c0.1-1.8,1.2-1.8,2.6-1.7l0.8,0.1c1.5,0.1,2.5,0.3,2.4,2.1
			c-0.1,1.8-1.2,1.8-2.7,1.7L41.7,41.7z M43.1,40.7c0.5,0,1.2,0.1,1.3-0.7c0.1-0.8-0.7-0.9-1.2-0.9L41.7,39c-0.4,0-1.4-0.1-1.5,0.7
			c-0.1,0.9,0.9,0.9,1.3,0.9L43.1,40.7z"/>
		<path id="XMLID_8_" class="st0" d="M41.3,33.3c-0.5,0-1,0.1-1,0.6c0,0.3,0.2,0.6,0.5,0.6c0.4,0,0.6-0.3,0.8-0.6
			c0.2-0.3,0.6-1,0.9-1.3c0.3-0.4,0.7-0.5,1.1-0.5c1.1,0,1.6,0.7,1.6,1.7c0,1.3-0.7,1.7-1.7,1.7l-0.4,0l0-1l0.3,0
			c0.5,0,0.9-0.2,0.9-0.7c0-0.4-0.2-0.6-0.7-0.6c-0.3,0-0.5,0.2-0.7,0.4c-0.4,0.6-0.7,1.2-1.3,1.7c-0.2,0.2-0.5,0.3-0.8,0.3
			c-0.9,0-1.5-0.5-1.5-1.6c0-1.7,1.2-1.6,1.8-1.7L41.3,33.3z"/>
	</g>
</g>
</svg>
