<?xml version="1.0" encoding="utf-8"?>
<!-- Generator: Adobe Illustrator 19.0.0, SVG Export Plug-In . SVG Version: 6.00 Build 0)  -->
<svg version="1.1" id="Capa_1" xmlns="http://www.w3.org/2000/svg" xmlns:xlink="http://www.w3.org/1999/xlink" x="0px" y="0px"
	 viewBox="0 0 238.8 67.7" style="enable-background:new 0 0 238.8 67.7;" xml:space="preserve">
<style type="text/css">
	.st0{fill:#989491;}
	.st1{fill:#A6A3A7;}
	.st2{fill:#003253;}
	.st3{fill:#4F4D44;}
</style>
<g id="XMLID_235_">
	<path id="XMLID_196_" class="st0" d="M3.1,50.2c0-2.7,0-3.2,0-3.7c0-0.6-0.2-0.9-0.8-1c-0.1,0-0.4-0.1-0.7-0.1
		c-0.2,0-0.3,0-0.3-0.2c0-0.1,0.1-0.2,0.4-0.2c0.9,0,2.1,0.1,2.6,0.1c0.4,0,1.6-0.1,2.2-0.1c0.3,0,0.4,0,0.4,0.2
		c0,0.1-0.1,0.2-0.3,0.2c-0.2,0-0.3,0-0.5,0.1c-0.5,0.1-0.6,0.4-0.7,1c0,0.6,0,1.1,0,3.7v2.5c0,2.6,0.5,3.6,1.4,4.3
		c0.8,0.7,1.6,0.7,2.2,0.7c0.8,0,1.8-0.2,2.5-1c1-1,1-2.6,1-4.4v-2.2c0-2.7,0-3.2,0-3.7c0-0.6-0.2-0.9-0.8-1c-0.1,0-0.4-0.1-0.6-0.1
		c-0.2,0-0.3,0-0.3-0.2c0-0.1,0.1-0.2,0.4-0.2c0.9,0,2,0.1,2.1,0.1c0.2,0,1.3-0.1,2-0.1c0.3,0,0.4,0,0.4,0.2c0,0.1-0.1,0.2-0.3,0.2
		c-0.2,0-0.3,0-0.5,0.1c-0.5,0.1-0.6,0.4-0.7,1c0,0.6,0,1.1,0,3.7v1.9c0,2-0.2,4-1.7,5.3c-1.3,1.1-2.6,1.3-3.7,1.3
		c-0.9,0-2.7-0.1-4-1.2c-0.9-0.8-1.6-2.1-1.6-4.7V50.2z"/>
	<path id="XMLID_195_" class="st0" d="M18.5,58.3c-0.3-0.1-0.3-0.2-0.3-0.6c0-1,0.1-2,0.1-2.3c0-0.3,0.1-0.5,0.2-0.5
		c0.2,0,0.2,0.2,0.2,0.3c0,0.2,0.1,0.6,0.2,0.9c0.4,1.3,1.4,1.8,2.6,1.8c1.6,0,2.4-1.1,2.4-2c0-0.9-0.3-1.7-1.8-2.8l-0.8-0.6
		c-2-1.5-2.6-2.8-2.6-4.2c0-1.9,1.6-3.3,4.1-3.3c1.2,0,1.9,0.2,2.4,0.3c0.2,0,0.2,0.1,0.2,0.2c0,0.2-0.1,0.7-0.1,2.1
		c0,0.4-0.1,0.5-0.2,0.5c-0.1,0-0.2-0.1-0.2-0.3c0-0.2-0.1-0.7-0.5-1.2c-0.3-0.3-0.8-0.9-2-0.9c-1.3,0-2.1,0.8-2.1,1.8
		c0,0.8,0.4,1.4,1.9,2.5l0.5,0.4c2.2,1.6,2.9,2.8,2.9,4.5c0,1-0.4,2.2-1.7,3.1c-0.9,0.6-1.9,0.7-2.8,0.7
		C20.1,58.7,19.3,58.6,18.5,58.3"/>
	<path id="XMLID_194_" class="st0" d="M30.8,45.2c0.1-0.3,0.2-0.5,0.3-0.5c0.1,0,0.3,0.1,0.5,0.6l4.9,10l4.9-10.1
		c0.1-0.3,0.2-0.4,0.4-0.4c0.2,0,0.3,0.2,0.3,0.6l1.6,10.9c0.2,1.1,0.3,1.6,0.9,1.8c0.5,0.2,0.9,0.2,1.1,0.2c0.2,0,0.3,0,0.3,0.1
		c0,0.1-0.2,0.2-0.5,0.2c-0.4,0-2.9-0.1-3.6-0.1c-0.4,0-0.5-0.1-0.5-0.2c0-0.1,0.1-0.1,0.2-0.2c0.1,0,0.2-0.3,0.1-0.8l-1.1-7.8h-0.1
		l-3.9,8c-0.4,0.8-0.5,1-0.7,1c-0.2,0-0.3-0.4-0.6-0.9c-0.4-0.8-1.8-3.5-2.1-4c-0.2-0.4-1.2-2.6-1.9-3.9h-0.1l-0.9,7
		c0,0.3-0.1,0.5-0.1,0.8c0,0.3,0.2,0.5,0.5,0.6c0.3,0.1,0.6,0.1,0.8,0.1c0.1,0,0.3,0,0.3,0.1c0,0.2-0.2,0.2-0.4,0.2
		c-0.7,0-1.6-0.1-1.9-0.1c-0.3,0-1.2,0.1-1.8,0.1c-0.2,0-0.3,0-0.3-0.2c0-0.1,0.1-0.1,0.3-0.1c0.1,0,0.3,0,0.5,0
		c0.5-0.1,0.6-0.8,0.7-1.4L30.8,45.2z"/>
	<path id="XMLID_193_" class="st0" d="M49.2,50.2c0-2.7,0-3.2,0-3.7c0-0.6-0.2-0.9-0.8-1c-0.1,0-0.4-0.1-0.7-0.1
		c-0.2,0-0.3,0-0.3-0.2c0-0.1,0.1-0.2,0.4-0.2c1,0,2.1,0.1,2.6,0.1c0.7,0,1.8-0.1,2.6-0.1c2.2,0,3,0.7,3.3,1
		c0.4,0.4,0.9,1.2,0.9,2.1c0,2.5-1.9,4.3-4.4,4.3c-0.1,0-0.3,0-0.4,0c-0.1,0-0.2,0-0.2-0.2c0-0.1,0.1-0.2,0.5-0.2
		c1,0,2.4-1.1,2.4-2.9c0-0.6-0.1-1.8-1.1-2.7c-0.6-0.6-1.4-0.7-1.8-0.7c-0.3,0-0.5,0-0.7,0.1c-0.1,0-0.1,0.1-0.1,0.3v7.1
		c0,1.6,0,3,0.1,3.8c0.1,0.5,0.2,0.9,0.7,0.9c0.2,0,0.6,0.1,0.9,0.1c0.2,0,0.3,0.1,0.3,0.1c0,0.1-0.1,0.2-0.3,0.2
		c-1.2,0-2.3-0.1-2.8-0.1c-0.4,0-1.5,0.1-2.3,0.1c-0.2,0-0.4-0.1-0.4-0.2c0-0.1,0.1-0.1,0.3-0.1c0.3,0,0.5,0,0.6-0.1
		c0.4-0.1,0.4-0.5,0.5-1c0.1-0.7,0.1-2.1,0.1-3.8V50.2z"/>
	<path id="XMLID_189_" class="st0" d="M42.7,25V7.9c0,0-0.5,0.8-0.7,1c-0.2,0.2-1.8,1.8-5.2,1.8c-4.6,0-7.2-1.9-7.2-1.9l0,0l0.6-1.2
		l1.8,0.6l-0.6-1.8l1.7-0.8l-1.7-0.8L31.9,3l-1.8,0.6l-0.8-1.7l-0.8,1.7L26.7,3l0.6,1.8l-1.7,0.8l1.7,0.8l-0.6,1.8l1.8-0.6L29,8.7
		c-0.2,0.1-2.9,1.9-7.2,2c-3.6,0-5.1-1.6-5.3-1.8c-0.2-0.2-0.7-1-0.7-1v17.2c0,0.2-0.1,4.9,2.3,8c1.7,2.1,4.8,4.2,9.9,6.5
		c0.6,0.3,1,0.7,1,0.7l0.3,0.4l0.3-0.4c0,0,0.3-0.4,1-0.7c5-2.3,8.2-4.4,9.8-6.5c2.2-2.8,2.3-7,2.3-7.9V25z M27.2,7.6l0.5-1.4
		l-1.3-0.7l1.3-0.7l-0.5-1.4L28.6,4l0.7-1.3L29.9,4l1.4-0.5l-0.5,1.4l1.3,0.7l-1.3,0.7l0.5,1.4l-1.4-0.5l-0.7,1.3l-0.7-1.3L27.2,7.6
		z M39.7,32.6c-1.6,2-4.6,4-9.5,6.3l0,0c-0.4,0.2-0.7,0.4-0.9,0.6c-0.2-0.2-0.5-0.4-0.9-0.6c-4.9-2.3-8-4.3-9.6-6.3
		c-2-2.6-2.1-6.6-2.1-7.3V10c0.9,0.6,2.5,1.5,5.2,1.5c4,0,6.7-1.5,7.5-2c0.8,0.5,3.3,2,7.5,1.9c2.6,0,4.2-0.9,5.1-1.5v15.1
		C41.8,25.9,41.7,29.9,39.7,32.6"/>
	<path id="XMLID_184_" class="st0" d="M37,23.2l0-6.6H21.6l0,6.5c0,1.8,0,5.1,3.9,7.2l3.7,2.1l0.1-0.1l3.6-2.1
		C37,28.2,37,25.1,37,23.2 M36.5,23.5c0,1.1-0.1,2.5-0.9,3.8l-5.3-4h3c0.4,0.1,0.7,0.4,0.7,0.8c0,0.4-0.2,0.7-0.6,0.8
		c0.9-0.1,1.6-0.8,1.8-1.7c0.3-0.1,0.5-0.3,0.5-0.6c0,0-0.2,0-0.2,0h-6.2l0.7,0.5v5.5c0,0.5,0.4,0.8,0.8,0.8c0.4,0,0.7-0.2,0.8-0.6
		c-0.2,0.9-0.9,1.6-1.7,1.8c-0.1,0.3-0.3,0.5-0.6,0.5v0.7c-0.3-0.2-3.5-2-3.5-2c-1.3-0.7-2.2-1.5-2.7-2.4l5.3-4.2h-3.2
		c-0.4,0.1-0.7,0.4-0.7,0.8c0,0.4,0.2,0.7,0.6,0.8c-0.9-0.1-1.6-0.8-1.8-1.7c-0.3-0.1-0.5-0.3-0.5-0.6v0h-0.6v-5.5h0.1l6.3,4.8h-2.9
		c-0.5,0-1.2-0.4-1.2-0.9c0-0.4,0.2-0.7,0.6-0.8c-0.9,0.2-1.5,0.9-1.7,1.8c-0.3,0.1-0.5,0.3-0.5,0.6h6.6L28.5,22v-1.9
		c-0.1-0.4-0.4-0.7-0.8-0.7c-0.4,0-0.7,0.3-0.8,0.6c0.2-0.9,0.8-1.6,1.7-1.8c0-0.3,0.3-0.5,0.6-0.5h0v-0.5h7.3v0.1l-6.4,4.8h3.1
		c0.5,0,0.8-0.4,0.8-0.9c0-0.4-0.2-0.7-0.6-0.8c0.9,0.2,1.5,0.9,1.7,1.8c0.3,0.1,0.5,0.3,0.5,0.6h0.8V23.5z M30,20.2L30,20.2
		c0-0.5,0.4-0.8,0.8-0.8c0.4,0,0.7,0.2,0.8,0.6c-0.2-0.9-0.9-1.6-1.7-1.8c-0.1-0.3-0.3-0.5-0.6-0.5v5l0.7-0.5V20.2z M28.5,28.8
		c-0.1,0.4-0.4,0.7-0.8,0.7c-0.4,0-0.7-0.3-0.8-0.6c0.2,0.9,0.8,1.6,1.7,1.8c0,0.3,0.3,0.5,0.6,0.5l0,0v-8.6l-0.7,0.6V28.8z"/>
	<path id="XMLID_183_" class="st0" d="M20.3,12.4H21l-0.7,3.2h-0.8l-0.7-3.2h0.7l0.4,2.1c0,0.2,0.1,0.4,0.1,0.5c0,0.1,0,0.2,0,0.3h0
		c0-0.1,0-0.2,0-0.3c0-0.2,0-0.4,0.1-0.5L20.3,12.4z"/>
	<polygon id="XMLID_182_" class="st0" points="22.3,15.6 22.3,12.4 24.1,12.4 24.1,12.9 23,12.9 23,13.7 24,13.7 24,14.2 23,14.2 
		23,15.2 24.1,15.2 24.1,15.6 	"/>
	<path id="XMLID_179_" class="st0" d="M26.2,14.3v1.4h-0.6v-3.2h1.2c0.5,0,1,0.2,1,0.8c0,0.4-0.1,0.7-0.5,0.8v0
		c0.4,0,0.5,0.3,0.5,0.6c0,0.1,0,0.9,0.1,1v0.1h-0.7C27,15.4,27.1,15,27,14.8c0-0.2,0-0.5-0.2-0.5c-0.2,0-0.3,0-0.5,0H26.2z
		 M26.2,13.8h0.5c0.2,0,0.4-0.1,0.4-0.5c0-0.4-0.2-0.4-0.4-0.4h-0.5V13.8z"/>
	<rect id="XMLID_178_" x="29.3" y="12.4" class="st0" width="0.6" height="3.2"/>
	<polygon id="XMLID_177_" class="st0" points="31.3,12.4 33.4,12.4 33.4,12.9 32.6,12.9 32.6,15.6 32,15.6 32,12.9 31.3,12.9 	"/>
	<path id="XMLID_174_" class="st0" d="M34.2,15.6l0.8-3.2h0.8l0.8,3.2H36l-0.2-0.8h-0.7l-0.2,0.8H34.2z M35.2,14.4h0.5l-0.2-0.9
		c0-0.2-0.1-0.3-0.1-0.5c0-0.1,0-0.1,0-0.2h0c0,0.1,0,0.1,0,0.2c0,0.1,0,0.3-0.1,0.5L35.2,14.4z"/>
	<path id="XMLID_173_" class="st0" d="M39.2,13.4c0-0.3,0-0.6-0.4-0.6c-0.2,0-0.3,0.1-0.3,0.3c0,0.2,0.2,0.3,0.4,0.5
		c0.2,0.1,0.6,0.4,0.8,0.5c0.2,0.2,0.3,0.4,0.3,0.7c0,0.6-0.4,0.9-1,0.9c-0.8,0-1-0.4-1-1v-0.2h0.6v0.2c0,0.3,0.1,0.5,0.4,0.5
		c0.3,0,0.4-0.1,0.4-0.4c0-0.2-0.1-0.3-0.3-0.4c-0.3-0.2-0.7-0.4-1-0.7c-0.1-0.1-0.2-0.3-0.2-0.5c0-0.6,0.3-0.9,1-0.9
		c1,0,1,0.7,1,1.1H39.2z"/>
	<polygon id="XMLID_172_" class="st0" points="17.6,20.3 20.9,20.3 20.9,20.9 18.1,20.9 18.1,22.1 17.6,22.1 	"/>
	<polygon id="XMLID_171_" class="st0" points="17.4,23.5 20.7,23.5 20.7,24.1 17.4,24.2 	"/>
	<path id="XMLID_167_" class="st0" d="M17.5,25.9l3.3-0.5l0.1,1c0,0.3,0.1,0.5-0.1,0.7c-0.2,0.2-0.4,0.2-0.6,0.2
		c-0.3,0-0.6,0-0.7-0.3l0,0c0,0.4-0.3,0.5-0.7,0.6c-0.1,0-0.3,0-0.4,0c-0.4-0.1-0.6-0.3-0.7-0.7L17.5,25.9z M18.1,26.6
		c0,0.1,0,0.3,0.1,0.4c0.1,0.2,0.3,0.1,0.5,0.1c0.4-0.1,0.5-0.1,0.4-0.5l0-0.2l-1,0.2L18.1,26.6z M19.6,26.4c0,0.2,0,0.3,0.2,0.4
		c0.1,0.1,0.2,0,0.4,0c0.2,0,0.4-0.1,0.3-0.4l0-0.3l-0.8,0.1L19.6,26.4z"/>
	<polygon id="XMLID_166_" class="st0" points="18.6,29.8 21.5,28.3 22.2,29.9 21.8,30.1 21.3,29.1 20.6,29.4 21,30.4 20.6,30.6 
		20.2,29.7 19.3,30.1 19.8,31.2 19.4,31.4 	"/>
	<path id="XMLID_163_" class="st0" d="M22.4,32.5l-0.9,1.1l-0.5-0.4l2-2.6l0.9,0.7c0.4,0.3,0.6,0.7,0.3,1.2
		c-0.2,0.3-0.5,0.5-0.9,0.3l0,0c0.3,0.3,0.2,0.5,0,0.7c-0.1,0.1-0.6,0.7-0.5,0.9l0,0.1l-0.5-0.4c0.1-0.2,0.3-0.5,0.4-0.7
		c0.1-0.2,0.3-0.4,0.2-0.5C22.8,32.8,22.6,32.7,22.4,32.5L22.4,32.5z M22.7,32.2l0.4,0.3c0.2,0.1,0.4,0.1,0.6-0.2
		c0.2-0.3,0.1-0.4,0-0.6l-0.4-0.3L22.7,32.2z"/>
	<path id="XMLID_160_" class="st0" d="M24.5,35.7l2-2.7l0.7,0.4l-0.7,3.3L26,36.4l0.2-0.8l-0.6-0.3L25.1,36L24.5,35.7z M25.9,34.9
		l0.5,0.2l0.2-0.9c0-0.2,0.1-0.3,0.1-0.5c0-0.1,0-0.1,0.1-0.2l0,0c0,0.1-0.1,0.1-0.1,0.2c-0.1,0.1-0.2,0.3-0.2,0.4L25.9,34.9z"/>
	<path id="XMLID_156_" class="st0" d="M29.2,37l-0.4-3.4l1-0.1c0.3,0,0.5-0.1,0.7,0.2c0.2,0.2,0.2,0.4,0.2,0.6c0,0.3,0,0.6-0.3,0.8
		v0c0.4,0,0.5,0.3,0.6,0.7c0,0.1,0,0.3,0,0.4c-0.1,0.4-0.3,0.7-0.7,0.7L29.2,37z M29.9,36.4c0.1,0,0.3,0,0.4-0.1
		c0.2-0.1,0.2-0.3,0.1-0.5c0-0.4-0.1-0.5-0.5-0.5l-0.2,0l0.1,1L29.9,36.4z M29.7,34.9c0.1,0,0.3,0,0.4-0.2c0-0.1,0-0.2,0-0.4
		c0-0.3-0.1-0.4-0.4-0.3l-0.3,0l0.1,0.9L29.7,34.9z"/>
	<polygon id="XMLID_155_" class="st0" points="33.2,36 32,32.9 32.6,32.7 33.8,35.8 	"/>
	<polygon id="XMLID_154_" class="st0" points="33.7,32.2 35.3,31 35.6,31.4 35,31.8 36.5,34.2 36,34.5 34.5,32.2 33.9,32.6 	"/>
	<path id="XMLID_153_" class="st0" d="M37.8,27.3l0.2-0.6l2.8,1.7l-0.3,0.7l-3.3-0.4l0.2-0.6l2.1,0.4c0.2,0,0.4,0.1,0.5,0.1
		c0.1,0,0.2,0,0.3,0.1v0c-0.1,0-0.2-0.1-0.2-0.1c-0.2-0.1-0.3-0.2-0.5-0.2L37.8,27.3z"/>
	<path id="XMLID_150_" class="st0" d="M39.3,26.1c-0.8-0.1-1.5-0.2-1.4-1.3c0.1-1.1,0.7-1.1,1.6-1l0.5,0c0.9,0.1,1.5,0.2,1.4,1.3
		c-0.1,1.1-0.7,1.1-1.6,1L39.3,26.1z M40.1,25.4c0.3,0,0.7,0,0.8-0.4c0-0.5-0.4-0.5-0.7-0.5l-0.8-0.1c-0.3,0-0.9-0.1-0.9,0.4
		c0,0.5,0.5,0.5,0.8,0.5L40.1,25.4z"/>
	<path id="XMLID_149_" class="st0" d="M39,21c-0.3,0-0.6,0-0.6,0.4c0,0.2,0.1,0.3,0.3,0.3c0.3,0,0.3-0.2,0.5-0.4
		c0.1-0.2,0.4-0.6,0.5-0.8c0.2-0.2,0.4-0.3,0.7-0.3c0.6,0,1,0.4,1,1c0,0.7-0.4,1-1,1l-0.2,0l0-0.6l0.2,0c0.3,0,0.6-0.1,0.5-0.4
		c0-0.3-0.1-0.4-0.4-0.4c-0.2,0-0.3,0.1-0.4,0.3c-0.2,0.3-0.4,0.7-0.7,1c-0.1,0.1-0.3,0.2-0.5,0.2c-0.6,0-0.9-0.3-0.9-1
		c0-1,0.7-1,1.1-1L39,21z"/>
	<rect id="XMLID_148_" x="66.5" y="1.9" class="st1" width="0.6" height="63.9"/>
	<path id="XMLID_147_" class="st2" d="M122,30.7v-0.5c1.1-0.1,1.3-0.2,1.3-1.4V23c0-1.2-0.1-1.4-1.3-1.4v-0.5h4.2v0.5
		c-1.1,0.1-1.3,0.2-1.3,1.4v5.7c0,1.2,0.1,1.3,1.3,1.4v0.5H122z"/>
	<path id="XMLID_146_" class="st2" d="M137.2,21.6c-0.8,0-1.1,0.2-1.2,0.9c-0.1,0.4-0.1,1.1-0.1,2.5v5.9h-0.6l-6.2-7.5h0v3.5
		c0,1.3,0.1,2,0.1,2.4c0.1,0.7,0.4,0.9,1.4,1v0.5H127v-0.5c0.8-0.1,1.2-0.3,1.2-0.9c0-0.5,0.1-1.1,0.1-2.5v-3.1c0-1,0-1.2-0.3-1.5
		c-0.3-0.4-0.6-0.5-1.3-0.5v-0.5h2.5l5.8,6.8h0V25c0-1.3-0.1-2-0.1-2.4c-0.1-0.6-0.4-0.9-1.5-0.9v-0.5h3.5V21.6z"/>
	<path id="XMLID_145_" class="st2" d="M145.8,23.5c-0.2-0.7-0.4-1.2-0.6-1.4c-0.3-0.3-0.6-0.4-1.5-0.4h-0.8v7c0,1.2,0.1,1.3,1.5,1.4
		v0.5h-4.6v-0.5c1.3-0.1,1.4-0.2,1.4-1.4v-7h-0.7c-1.2,0-1.5,0.1-1.7,0.4c-0.2,0.2-0.4,0.7-0.6,1.4h-0.5c0.1-1,0.1-2,0.2-2.8h0.3
		c0.2,0.3,0.4,0.4,0.8,0.4h5.9c0.4,0,0.6-0.1,0.8-0.4h0.3c0,0.6,0.1,1.9,0.1,2.8L145.8,23.5z"/>
	<path id="XMLID_144_" class="st2" d="M154.7,28.3c-0.1,0.6-0.4,2-0.5,2.4h-7.4v-0.5c1.3-0.1,1.4-0.2,1.4-1.4V23
		c0-1.3-0.1-1.4-1.2-1.4v-0.5h6.8c0,0.3,0.1,1.3,0.1,2.2l-0.5,0.1c-0.1-0.6-0.3-1-0.5-1.3c-0.2-0.3-0.6-0.4-1.5-0.4h-0.9
		c-0.5,0-0.6,0-0.6,0.5v3.2h1.1c1.3,0,1.4-0.1,1.6-1.1h0.5v2.9h-0.5c-0.2-1.1-0.3-1.1-1.6-1.1H150v2.6c0,0.7,0.1,1,0.4,1.2
		c0.3,0.1,0.8,0.2,1.4,0.2c0.9,0,1.4-0.1,1.7-0.5c0.3-0.3,0.5-0.8,0.8-1.4L154.7,28.3z"/>
	<path id="XMLID_141_" class="st2" d="M164.2,30.8c-0.1,0-0.3,0-0.5,0c-1.6-0.1-2.2-0.5-2.8-1.4c-0.4-0.6-0.9-1.5-1.3-2.2
		c-0.2-0.4-0.5-0.6-1.1-0.6h-0.3v2.2c0,1.2,0.1,1.3,1.3,1.4v0.5h-4.2v-0.5c1.1-0.1,1.3-0.2,1.3-1.4V23c0-1.2-0.1-1.3-1.2-1.4v-0.5h4
		c1.2,0,1.9,0.1,2.5,0.5c0.6,0.4,1,1,1,2c0,1.3-0.8,2-1.9,2.4c0.2,0.5,0.8,1.4,1.2,2.1c0.5,0.8,0.8,1.2,1.2,1.6
		c0.3,0.4,0.6,0.6,1,0.7L164.2,30.8z M158.7,26c0.7,0,1.2-0.1,1.5-0.4c0.5-0.4,0.7-1,0.7-1.8c0-1.6-0.9-2.2-1.9-2.2
		c-0.4,0-0.6,0.1-0.7,0.1c-0.1,0.1-0.1,0.2-0.1,0.6V26H158.7z"/>
	<path id="XMLID_140_" class="st2" d="M174.7,21.6c-0.8,0-1.1,0.2-1.2,0.9c-0.1,0.4-0.1,1.1-0.1,2.5v5.9h-0.6l-6.2-7.5h0v3.5
		c0,1.3,0.1,2,0.1,2.4c0.1,0.7,0.4,0.9,1.4,1v0.5h-3.6v-0.5c0.8-0.1,1.2-0.3,1.2-0.9c0-0.5,0.1-1.1,0.1-2.5v-3.1c0-1,0-1.2-0.3-1.5
		c-0.3-0.4-0.6-0.5-1.3-0.5v-0.5h2.5l5.8,6.8h0V25c0-1.3-0.1-2-0.1-2.4c-0.1-0.6-0.4-0.9-1.5-0.9v-0.5h3.5V21.6z"/>
	<path id="XMLID_137_" class="st2" d="M180.2,30.7v-0.5c0.9-0.1,1-0.3,0.8-0.9c-0.2-0.5-0.4-1.2-0.7-1.9h-2.9
		c-0.2,0.5-0.4,1.1-0.6,1.7c-0.2,0.8-0.2,1,0.9,1.1v0.5h-3.2v-0.5c1-0.1,1.1-0.3,1.6-1.5l3-7.6l0.6-0.2c0.9,2.6,1.9,5.2,2.8,7.7
		c0.5,1.3,0.7,1.5,1.6,1.6v0.5H180.2z M178.8,23.3L178.8,23.3c-0.5,1.1-0.9,2.3-1.3,3.4h2.4L178.8,23.3z"/>
	<path id="XMLID_136_" class="st2" d="M193.4,28.2c-0.2,0.7-0.6,1.8-0.8,2.3c-0.4,0.1-1.7,0.4-2.7,0.4c-3.8,0-5.4-2.5-5.4-4.9
		c0-3.1,2.3-5.1,5.8-5.1c1.2,0,2.2,0.3,2.6,0.4c0.1,0.8,0.2,1.5,0.3,2.3l-0.5,0.1c-0.4-1.7-1.5-2.2-2.8-2.2c-2.2,0-3.5,2-3.5,4.2
		c0,2.7,1.5,4.5,3.6,4.5c1.3,0,2.2-0.8,2.9-2.3L193.4,28.2z"/>
	<path id="XMLID_135_" class="st2" d="M194.1,30.7v-0.5c1.1-0.1,1.3-0.2,1.3-1.4V23c0-1.2-0.1-1.4-1.3-1.4v-0.5h4.2v0.5
		c-1.1,0.1-1.3,0.2-1.3,1.4v5.7c0,1.2,0.1,1.3,1.3,1.4v0.5H194.1z"/>
	<path id="XMLID_132_" class="st2" d="M209.1,25.8c0,3.2-2.3,5.1-5,5.1c-2.8,0-4.9-2.1-4.9-5c0-2.6,1.8-5,5.1-5
		C206.9,20.9,209.1,22.9,209.1,25.8 M201.2,25.6c0,2.6,1.3,4.7,3.2,4.7c1.5,0,2.7-1.4,2.7-4.1c0-3-1.3-4.7-3.1-4.7
		C202.4,21.5,201.2,23,201.2,25.6"/>
	<path id="XMLID_131_" class="st2" d="M220,21.6c-0.8,0-1.1,0.2-1.2,0.9c-0.1,0.4-0.1,1.1-0.1,2.5v5.9H218l-6.2-7.5h0v3.5
		c0,1.3,0.1,2,0.1,2.4c0.1,0.7,0.4,0.9,1.4,1v0.5h-3.6v-0.5c0.8-0.1,1.2-0.3,1.2-0.9c0-0.5,0.1-1.1,0.1-2.5v-3.1c0-1,0-1.2-0.3-1.5
		c-0.3-0.4-0.6-0.5-1.3-0.5v-0.5h2.5l5.8,6.8h0V25c0-1.3-0.1-2-0.1-2.4c-0.1-0.6-0.4-0.9-1.5-0.9v-0.5h3.5V21.6z"/>
	<path id="XMLID_128_" class="st2" d="M225.5,30.7v-0.5c0.9-0.1,1-0.3,0.8-0.9c-0.2-0.5-0.4-1.2-0.7-1.9h-2.9
		c-0.2,0.5-0.4,1.1-0.6,1.7c-0.2,0.8-0.2,1,0.9,1.1v0.5h-3.2v-0.5c1-0.1,1.1-0.3,1.6-1.5l3-7.6l0.6-0.2c0.9,2.6,1.9,5.2,2.8,7.7
		c0.5,1.3,0.7,1.5,1.6,1.6v0.5H225.5z M224.2,23.3L224.2,23.3c-0.5,1.1-0.9,2.3-1.3,3.4h2.4L224.2,23.3z"/>
	<path id="XMLID_127_" class="st2" d="M237.5,28.3c-0.1,0.6-0.4,2-0.5,2.4h-7v-0.5c1.3-0.1,1.4-0.2,1.4-1.5V23
		c0-1.2-0.1-1.3-1.3-1.4v-0.5h4.2v0.5c-1.1,0.1-1.3,0.2-1.3,1.4v5.8c0,0.7,0.1,1,0.4,1.1c0.3,0.1,0.7,0.1,1.2,0.1
		c0.7,0,1.2-0.1,1.6-0.5c0.3-0.3,0.5-0.8,0.8-1.5L237.5,28.3z"/>
	<path id="XMLID_126_" class="st0" d="M121.8,43.4v-0.3c0.9-0.1,1-0.1,1-1v-4.3c0-0.9-0.1-1-1-1v-0.3h2.9v0.3c-0.9,0.1-1,0.1-1,1
		v4.3c0,0.9,0.1,1,1,1v0.3H121.8z"/>
	<path id="XMLID_125_" class="st0" d="M132.7,36.7c-0.6,0-0.9,0.2-0.9,0.6c0,0.3-0.1,0.8-0.1,1.8v4.3h-0.3l-4.6-5.7h0v2.7
		c0,1,0,1.5,0.1,1.8c0.1,0.5,0.3,0.7,1,0.7v0.3h-2.6v-0.3c0.6,0,0.9-0.2,0.9-0.7c0-0.3,0.1-0.9,0.1-1.8v-2.4c0-0.8,0-0.8-0.2-1.1
		c-0.2-0.3-0.5-0.4-1-0.4v-0.3h1.6l4.5,5.4h0v-2.7c0-1,0-1.5-0.1-1.8c-0.1-0.5-0.3-0.6-1.1-0.7v-0.3h2.5V36.7z"/>
	<path id="XMLID_124_" class="st0" d="M138.9,38.1c-0.1-0.5-0.2-0.8-0.3-1c-0.2-0.3-0.4-0.3-1.2-0.3h-0.8v5.3c0,0.9,0.1,1,1.1,1v0.3
		h-3.1v-0.3c1-0.1,1.1-0.2,1.1-1v-5.3H135c-0.9,0-1.1,0.1-1.3,0.3c-0.1,0.2-0.2,0.5-0.3,1h-0.3c0.1-0.6,0.1-1.3,0.1-1.9h0.2
		c0.2,0.2,0.3,0.3,0.6,0.3h4.3c0.3,0,0.4-0.1,0.6-0.3h0.2c0,0.5,0.1,1.3,0.1,1.9L138.9,38.1z"/>
	<path id="XMLID_123_" class="st0" d="M145.2,41.7c-0.1,0.4-0.3,1.4-0.4,1.7h-5.2v-0.3c1-0.1,1.1-0.2,1.1-1v-4.3c0-1-0.1-1-0.9-1.1
		v-0.3h4.8c0,0.3,0.1,1,0.1,1.6l-0.3,0.1c-0.1-0.5-0.2-0.7-0.3-0.9c-0.2-0.2-0.4-0.3-1.2-0.3h-0.8c-0.3,0-0.4,0-0.4,0.3v2.4h1
		c1,0,1-0.1,1.2-0.8h0.3v2.1h-0.3c-0.1-0.8-0.2-0.8-1.2-0.8h-1v2c0,0.5,0.1,0.7,0.3,0.9c0.2,0.1,0.6,0.1,1.1,0.1
		c0.8,0,1.1-0.1,1.4-0.4c0.2-0.2,0.4-0.6,0.5-1L145.2,41.7z"/>
	<path id="XMLID_120_" class="st0" d="M152,43.5c-0.1,0-0.2,0-0.4,0c-0.8,0-1.3-0.3-1.7-1c-0.4-0.5-0.8-1.2-1.1-1.7
		c-0.2-0.3-0.4-0.4-0.9-0.4h-0.3v1.7c0,0.9,0.1,1,1,1v0.3h-2.8v-0.3c0.9-0.1,1-0.1,1-1v-4.3c0-0.9-0.1-0.9-0.9-1v-0.3h2.7
		c0.8,0,1.3,0.1,1.7,0.4c0.4,0.3,0.7,0.8,0.7,1.4c0,0.9-0.6,1.5-1.4,1.8c0.2,0.4,0.6,1.1,1,1.6c0.4,0.6,0.6,0.8,0.9,1.1
		c0.3,0.3,0.5,0.4,0.8,0.5L152,43.5z M148,40c0.5,0,0.9-0.1,1.2-0.3c0.4-0.3,0.6-0.8,0.6-1.3c0-1.2-0.8-1.6-1.6-1.6
		c-0.3,0-0.5,0-0.6,0.1c-0.1,0.1-0.1,0.2-0.1,0.5V40H148z"/>
	<path id="XMLID_119_" class="st0" d="M159.5,36.7c-0.6,0-0.9,0.2-0.9,0.6c0,0.3-0.1,0.8-0.1,1.8v4.3h-0.3l-4.6-5.7h0v2.7
		c0,1,0,1.5,0.1,1.8c0.1,0.5,0.3,0.7,1,0.7v0.3h-2.6v-0.3c0.6,0,0.9-0.2,0.9-0.7c0-0.3,0.1-0.9,0.1-1.8v-2.4c0-0.8,0-0.8-0.2-1.1
		c-0.2-0.3-0.5-0.4-1-0.4v-0.3h1.6l4.5,5.4h0v-2.7c0-1,0-1.5-0.1-1.8c-0.1-0.5-0.3-0.6-1.1-0.7v-0.3h2.5V36.7z"/>
	<path id="XMLID_116_" class="st0" d="M163.8,43.4v-0.3c0.7-0.1,0.8-0.2,0.6-0.6c-0.1-0.4-0.4-1-0.6-1.7h-2.3
		c-0.2,0.5-0.3,0.9-0.5,1.4c-0.2,0.7-0.1,0.8,0.7,0.9v0.3h-2.3v-0.3c0.7-0.1,0.8-0.2,1.2-1.1l2.2-5.7l0.3-0.1
		c0.7,1.9,1.4,3.9,2.1,5.8c0.3,0.9,0.5,1,1.2,1.1v0.3H163.8z M162.8,37.7L162.8,37.7c-0.4,0.9-0.7,1.9-1,2.8h2L162.8,37.7z"/>
	<path id="XMLID_115_" class="st0" d="M171.9,38.1c-0.1-0.5-0.2-0.8-0.3-1c-0.2-0.3-0.4-0.3-1.2-0.3h-0.8v5.3c0,0.9,0.1,1,1.1,1v0.3
		h-3.1v-0.3c1-0.1,1.1-0.2,1.1-1v-5.3H168c-0.9,0-1.1,0.1-1.3,0.3c-0.1,0.2-0.2,0.5-0.3,1h-0.3c0.1-0.6,0.1-1.3,0.1-1.9h0.2
		c0.2,0.2,0.3,0.3,0.6,0.3h4.3c0.3,0,0.4-0.1,0.6-0.3h0.2c0,0.5,0.1,1.3,0.1,1.9L171.9,38.1z"/>
	<path id="XMLID_114_" class="st0" d="M172.7,43.4v-0.3c0.9-0.1,1-0.1,1-1v-4.3c0-0.9-0.1-1-1-1v-0.3h2.9v0.3c-0.9,0.1-1,0.1-1,1
		v4.3c0,0.9,0.1,1,1,1v0.3H172.7z"/>
	<path id="XMLID_111_" class="st0" d="M183.2,39.8c0,2.3-1.6,3.8-3.6,3.8c-2,0-3.5-1.5-3.5-3.6c0-1.9,1.4-3.7,3.6-3.7
		C181.6,36.2,183.2,37.7,183.2,39.8 M177.2,39.7c0,2,1.1,3.5,2.6,3.5c1.2,0,2.3-1,2.3-3.1c0-2.3-1.2-3.5-2.6-3.5
		C178.3,36.6,177.2,37.7,177.2,39.7"/>
	<path id="XMLID_110_" class="st0" d="M191.2,36.7c-0.6,0-0.9,0.2-0.9,0.6c0,0.3-0.1,0.8-0.1,1.8v4.3h-0.3l-4.6-5.7h0v2.7
		c0,1,0,1.5,0.1,1.8c0.1,0.5,0.3,0.7,1,0.7v0.3h-2.6v-0.3c0.6,0,0.9-0.2,0.9-0.7c0-0.3,0.1-0.9,0.1-1.8v-2.4c0-0.8,0-0.8-0.2-1.1
		c-0.2-0.3-0.5-0.4-1-0.4v-0.3h1.6l4.5,5.4h0v-2.7c0-1,0-1.5-0.1-1.8c-0.1-0.5-0.3-0.6-1.1-0.7v-0.3h2.5V36.7z"/>
	<path id="XMLID_107_" class="st0" d="M195.5,43.4v-0.3c0.7-0.1,0.8-0.2,0.6-0.6c-0.1-0.4-0.4-1-0.6-1.7h-2.3
		c-0.2,0.5-0.3,0.9-0.5,1.4c-0.2,0.7-0.1,0.8,0.7,0.9v0.3h-2.3v-0.3c0.7-0.1,0.8-0.2,1.2-1.1l2.2-5.7l0.3-0.1
		c0.7,1.9,1.4,3.9,2.1,5.8c0.3,0.9,0.5,1,1.2,1.1v0.3H195.5z M194.5,37.7L194.5,37.7c-0.4,0.9-0.7,1.9-1,2.8h2L194.5,37.7z"/>
	<path id="XMLID_106_" class="st0" d="M203.9,41.7c-0.1,0.3-0.3,1.4-0.4,1.7h-4.9v-0.3c0.9-0.1,1-0.1,1-1.1v-4.3c0-0.9-0.1-1-0.9-1
		v-0.3h2.8v0.3c-0.9,0.1-0.9,0.1-0.9,1V42c0,0.6,0.1,0.8,0.2,0.9c0.2,0.1,0.6,0.1,1,0.1c0.6,0,1-0.1,1.2-0.3
		c0.2-0.2,0.4-0.6,0.5-1.1L203.9,41.7z"/>
	<path id="XMLID_105_" class="st2" d="M83.8,23.3c0.2-0.1,0.4-0.2,0.6-0.2C84.2,23.2,84,23.2,83.8,23.3"/>
	<path id="XMLID_104_" class="st2" d="M85.7,22.6c-0.2,0.1-0.4,0.1-0.6,0.2C85.4,22.8,85.6,22.7,85.7,22.6
		C85.7,22.6,85.7,22.6,85.7,22.6"/>
	<path id="XMLID_103_" class="st2" d="M86,23.1c-0.2,0.8-0.4,1.5-0.5,2.4c0,0,0,0,0,0C85.6,24.7,85.8,23.9,86,23.1"/>
	<path id="XMLID_102_" class="st2" d="M82.4,24c0.4-0.2,0.9-0.4,1.4-0.7C83.3,23.5,82.9,23.7,82.4,24"/>
	<path id="XMLID_101_" class="st2" d="M84.4,23.1c0.2-0.1,0.5-0.2,0.8-0.3C84.9,22.9,84.6,23,84.4,23.1"/>
	<path id="XMLID_100_" class="st2" d="M85.8,22.6c-0.2,0.1-0.4,0.1-0.6,0.2c-0.3,0.1-0.5,0.2-0.8,0.3c-0.2,0.1-0.4,0.2-0.6,0.2
		c-0.5,0.2-1,0.4-1.4,0.7c-0.1,0.1-0.3,0.2-0.4,0.2c-0.2,0.1-0.4,0.2-0.6,0.4c-0.1,0.1-0.2,0.1-0.3,0.2c0,0,0,0,0,0
		c-0.1,0.1-0.2,0.1-0.3,0.2c0,0.2-0.1,0.5-0.1,0.7h0.7h3.9c0.1,0,0.2-0.1,0.2-0.2c0.1-0.8,0.3-1.6,0.5-2.4c0-0.1,0-0.1,0-0.2
		C86.1,22.7,85.9,22.6,85.8,22.6"/>
	<path id="XMLID_99_" class="st2" d="M85.8,32c-0.2-0.1-0.4-0.1-0.6-0.2c-0.3-0.1-0.5-0.2-0.8-0.3c-0.2-0.1-0.4-0.2-0.6-0.2
		c-0.5-0.2-1-0.4-1.4-0.7c-0.1-0.1-0.3-0.2-0.4-0.2c-0.2-0.1-0.4-0.2-0.6-0.4c-0.1-0.1-0.2-0.1-0.3-0.2c0,0,0,0,0,0
		c-0.1-0.1-0.2-0.1-0.3-0.2c0-0.2-0.1-0.5-0.1-0.7h0.7h3.9c0.1,0,0.2,0.1,0.2,0.2c0.1,0.8,0.3,1.6,0.5,2.4c0,0.1,0,0.1,0,0.2
		C86.1,31.8,85.9,32,85.8,32"/>
	<path id="XMLID_98_" class="st2" d="M92.9,21.3c-0.7,0.1-1.3,0.1-1.9,0.2c-0.3,0-0.5,0.3-0.5,0.5c-0.1,0.9-0.3,1.9-0.3,3
		c0,0.4,0.3,0.7,0.6,0.7h2c0.3,0,0.6-0.3,0.6-0.6c0-1.1,0.1-2.1,0.2-3.1C93.6,21.6,93.3,21.3,92.9,21.3"/>
	<path id="XMLID_97_" class="st2" d="M100.2,29.4c0,1.3-0.1,2.5-0.3,3.7c0,0.3,0.2,0.6,0.5,0.6c0.2,0,0.4,0,0.7-0.1
		c0.2,0,0.4-0.2,0.5-0.4c0.1-1.1,0.3-2.4,0.4-3.7c0-0.3-0.2-0.5-0.5-0.5h-0.7C100.4,28.9,100.2,29.1,100.2,29.4"/>
	<path id="XMLID_96_" class="st2" d="M109.7,25.1c-0.1-0.6-0.2-1.1-0.3-1.6c0-0.2-0.2-0.4-0.4-0.5c-0.3-0.1-0.6-0.2-0.9-0.3
		c0.2,0.9,0.4,1.9,0.5,3h1C109.8,25.7,109.7,25.3,109.7,25.1"/>
	<path id="XMLID_95_" class="st2" d="M90,29.5c0.1,1.2,0.2,2.3,0.4,3.4c0,0.3,0.2,0.5,0.5,0.5c0.7,0.1,1.3,0.2,2,0.2
		c0.4,0,0.7-0.3,0.6-0.7c-0.1-1.1-0.2-2.3-0.3-3.5c0-0.3-0.3-0.6-0.6-0.6h-2.1C90.3,28.9,90,29.2,90,29.5"/>
	<path id="XMLID_94_" class="st2" d="M101.9,25.2c-0.1-1.2-0.2-2.4-0.3-3.5c0-0.2-0.2-0.4-0.4-0.4c-0.3,0-0.6-0.1-0.9-0.1
		c-0.3,0-0.5,0.2-0.5,0.5c0.1,1.1,0.2,2.3,0.3,3.5c0,0.2,0.2,0.4,0.4,0.4h0.9C101.7,25.7,101.9,25.5,101.9,25.2"/>
	<path id="XMLID_93_" class="st2" d="M108.5,28.9c-0.1,1.2-0.2,2.3-0.5,3.3c0.3-0.1,0.6-0.2,0.9-0.3c0.2-0.1,0.4-0.3,0.4-0.5
		c0.1-0.6,0.2-1.2,0.3-1.8c0-0.2,0.1-0.6-0.2-0.6H108.5z"/>
	<path id="XMLID_92_" class="st2" d="M108.3,37c-0.5,0-0.1-1.1,0.4-2.8c-0.4,0.1-0.8,0.3-1.3,0.4c-0.1,0-0.2,0.1-0.3,0.2
		c-1.8,4-4.8,5.4-5.8,5.4c-0.8,0-0.6-1.5-0.2-4c0-0.3-0.2-0.5-0.5-0.5c-0.3,0-0.6,0-0.9,0.1c-0.2,0-0.4,0.2-0.4,0.3
		c-0.6,3-1.6,5-2.7,5c-1.1,0-2-1.9-2.7-5c0-0.2-0.2-0.3-0.4-0.3c-0.8,0-1.5-0.1-2.2-0.2c-0.3,0-0.5,0.2-0.5,0.5
		c0.5,2.4,0.9,3.9,0.2,3.9c-0.7,0-2.6-2-4-5c-0.1-0.1-0.2-0.2-0.3-0.2c-1.6-0.4-3.1-0.9-4.4-1.4c-0.4-0.2-0.7,0.2-0.6,0.6
		c2.5,5.7,8.1,9.6,14.7,9.6c7,0,12.9-4.4,15.1-10.7c-0.1,0-0.2,0.1-0.3,0.1C110.5,35.4,108.9,37,108.3,37"/>
	<path id="XMLID_91_" class="st2" d="M91.2,14.9c0.6,0,0.3,1.4-0.2,3.8c-0.1,0.4,0.2,0.7,0.6,0.6c0.6-0.1,1.3-0.1,2-0.2
		c0.2,0,0.4-0.2,0.5-0.4c0.6-3,1.6-4.9,2.7-4.9c1.1,0,2,1.9,2.7,4.9c0,0.2,0.2,0.4,0.5,0.4c0.2,0,0.5,0,0.7,0c0.3,0,0.6-0.3,0.6-0.6
		c-0.4-2.4-0.6-3.8,0.2-3.8c1,0,4,1.3,5.8,5.3c0.1,0.1,0.2,0.3,0.3,0.3c0.4,0.1,0.8,0.2,1.2,0.3c-0.5-1.6-0.8-2.6-0.3-2.6
		c0.6,0,2.1,1.5,3.2,3.7c0.1,0.1,0.3,0.1,0.4,0.2c-2.2-6.1-8-10.7-15.1-10.7c-6.5,0-12.1,3.8-14.6,9.4c-0.2,0.4,0.2,0.9,0.7,0.7
		c1.2-0.5,2.6-1,4.1-1.3c0.2,0,0.3-0.1,0.4-0.3C88.7,16.8,90.5,14.9,91.2,14.9"/>
	<polygon id="XMLID_90_" class="st3" points="81.1,56.5 81.1,51.9 83.7,51.9 83.7,52.4 81.8,52.4 81.8,54 83.6,54 83.6,54.5 
		81.8,54.5 81.8,56.5 	"/>
	<path id="XMLID_87_" class="st3" d="M88.3,56.5h-0.6l-0.4-1.1h-2.1l-0.4,1.1h-0.6l1.8-4.6h0.6L88.3,56.5z M85.3,54.9h1.8l-0.9-2.4
		L85.3,54.9z"/>
	<path id="XMLID_86_" class="st3" d="M91.2,51.9c0.2,0,0.4,0,0.6,0.1c0.2,0,0.4,0.1,0.6,0.2l-0.1,0.5c-0.2-0.1-0.3-0.1-0.5-0.1
		c-0.2,0-0.4-0.1-0.5-0.1c-0.6,0-1,0.2-1.3,0.5c-0.3,0.3-0.5,0.8-0.5,1.4c0,0.6,0.2,1.1,0.5,1.4c0.3,0.3,0.8,0.5,1.3,0.5
		c0.2,0,0.4,0,0.5-0.1c0.2,0,0.3-0.1,0.5-0.1l0.1,0.5c-0.2,0.1-0.3,0.1-0.6,0.2c-0.2,0-0.4,0.1-0.6,0.1c-0.4,0-0.7-0.1-1-0.2
		c-0.3-0.1-0.5-0.3-0.7-0.5c-0.2-0.2-0.4-0.5-0.5-0.7c-0.1-0.3-0.2-0.6-0.2-0.9c0-0.3,0.1-0.7,0.2-0.9c0.1-0.3,0.3-0.5,0.5-0.7
		c0.2-0.2,0.4-0.4,0.7-0.5C90.5,51.9,90.9,51.9,91.2,51.9"/>
	<path id="XMLID_85_" class="st3" d="M96.5,51.9h0.6v3c0,0.2,0,0.5-0.1,0.7c-0.1,0.2-0.2,0.4-0.3,0.5c-0.2,0.2-0.3,0.3-0.6,0.4
		c-0.2,0.1-0.5,0.1-0.8,0.1c-0.3,0-0.6,0-0.8-0.1c-0.2-0.1-0.4-0.2-0.6-0.4c-0.2-0.2-0.3-0.3-0.3-0.5c-0.1-0.2-0.1-0.4-0.1-0.7v-3
		h0.6v3c0,0.3,0.1,0.6,0.3,0.8c0.2,0.2,0.5,0.3,0.9,0.3c0.4,0,0.7-0.1,0.9-0.3c0.2-0.2,0.3-0.5,0.3-0.8V51.9z"/>
	<polygon id="XMLID_84_" class="st3" points="99.1,51.9 99.1,56 101,56 101,56.5 98.5,56.5 98.5,51.9 	"/>
	<polygon id="XMLID_83_" class="st3" points="104.4,51.9 104.4,52.4 103,52.4 103,56.5 102.4,56.5 102.4,52.4 101.1,52.4 
		101.1,51.9 	"/>
	<path id="XMLID_80_" class="st3" d="M108.8,56.5h-0.6l-0.4-1.1h-2.1l-0.4,1.1h-0.6l1.8-4.6h0.6L108.8,56.5z M105.8,54.9h1.8
		l-0.9-2.4L105.8,54.9z"/>
	<path id="XMLID_77_" class="st3" d="M109.8,51.9h1.3c0.4,0,0.7,0.1,1.1,0.2c0.3,0.1,0.6,0.3,0.8,0.5c0.2,0.2,0.4,0.4,0.5,0.7
		c0.1,0.3,0.2,0.6,0.2,0.9c0,0.3-0.1,0.6-0.2,0.9c-0.1,0.3-0.3,0.5-0.5,0.7c-0.2,0.2-0.5,0.4-0.8,0.5c-0.3,0.1-0.7,0.2-1.1,0.2h-1.3
		V51.9z M111.1,56c0.3,0,0.5,0,0.8-0.1c0.2-0.1,0.4-0.2,0.6-0.3c0.2-0.2,0.3-0.3,0.4-0.6c0.1-0.2,0.2-0.5,0.2-0.8
		c0-0.3-0.1-0.5-0.2-0.8c-0.1-0.2-0.2-0.4-0.4-0.6c-0.2-0.2-0.4-0.3-0.6-0.3c-0.2-0.1-0.5-0.1-0.8-0.1h-0.6V56H111.1z"/>
	<path id="XMLID_74_" class="st3" d="M116.5,51.9h1.3c0.4,0,0.7,0.1,1.1,0.2c0.3,0.1,0.6,0.3,0.8,0.5c0.2,0.2,0.4,0.4,0.5,0.7
		c0.1,0.3,0.2,0.6,0.2,0.9c0,0.3-0.1,0.6-0.2,0.9c-0.1,0.3-0.3,0.5-0.5,0.7c-0.2,0.2-0.5,0.4-0.8,0.5c-0.3,0.1-0.7,0.2-1.1,0.2h-1.3
		V51.9z M117.8,56c0.3,0,0.5,0,0.8-0.1c0.2-0.1,0.4-0.2,0.6-0.3c0.2-0.2,0.3-0.3,0.4-0.6c0.1-0.2,0.2-0.5,0.2-0.8
		c0-0.3-0.1-0.5-0.2-0.8c-0.1-0.2-0.2-0.4-0.4-0.6c-0.2-0.2-0.4-0.3-0.6-0.3c-0.2-0.1-0.5-0.1-0.8-0.1h-0.6V56H117.8z"/>
	<polygon id="XMLID_73_" class="st3" points="121.5,51.9 124,51.9 124,52.4 122.1,52.4 122.1,53.9 124,53.9 124,54.4 122.1,54.4 
		122.1,56 124.1,56 124.1,56.5 121.5,56.5 	"/>
	<path id="XMLID_72_" class="st3" d="M129.1,51.9c0.2,0,0.4,0,0.6,0.1c0.2,0,0.4,0.1,0.6,0.2l-0.1,0.5c-0.2-0.1-0.3-0.1-0.5-0.1
		c-0.2,0-0.4-0.1-0.5-0.1c-0.6,0-1,0.2-1.3,0.5c-0.3,0.3-0.5,0.8-0.5,1.4c0,0.6,0.2,1.1,0.5,1.4c0.3,0.3,0.8,0.5,1.3,0.5
		c0.2,0,0.4,0,0.5-0.1c0.2,0,0.3-0.1,0.5-0.1l0.1,0.5c-0.2,0.1-0.3,0.1-0.6,0.2c-0.2,0-0.4,0.1-0.6,0.1c-0.4,0-0.7-0.1-1-0.2
		c-0.3-0.1-0.5-0.3-0.7-0.5c-0.2-0.2-0.4-0.5-0.5-0.7c-0.1-0.3-0.2-0.6-0.2-0.9c0-0.3,0.1-0.7,0.2-0.9c0.1-0.3,0.3-0.5,0.5-0.7
		c0.2-0.2,0.4-0.4,0.7-0.5C128.4,51.9,128.8,51.9,129.1,51.9"/>
	<rect id="XMLID_71_" x="131.5" y="51.9" class="st3" width="0.6" height="4.6"/>
	<polygon id="XMLID_70_" class="st3" points="133.5,51.9 136.1,51.9 136.1,52.4 134.2,52.4 134.2,53.9 136,53.9 136,54.4 
		134.2,54.4 134.2,56 136.1,56 136.1,56.5 133.5,56.5 	"/>
	<polygon id="XMLID_69_" class="st3" points="140.5,56.5 137.9,52.9 137.9,56.5 137.3,56.5 137.3,51.9 137.9,51.9 140.5,55.5 
		140.5,51.9 141.1,51.9 141.1,56.5 	"/>
	<path id="XMLID_68_" class="st3" d="M144.6,51.9c0.2,0,0.4,0,0.6,0.1c0.2,0,0.4,0.1,0.6,0.2l-0.1,0.5c-0.2-0.1-0.3-0.1-0.5-0.1
		c-0.2,0-0.4-0.1-0.5-0.1c-0.6,0-1,0.2-1.3,0.5c-0.3,0.3-0.5,0.8-0.5,1.4c0,0.6,0.2,1.1,0.5,1.4c0.3,0.3,0.8,0.5,1.3,0.5
		c0.2,0,0.4,0,0.5-0.1c0.2,0,0.3-0.1,0.5-0.1l0.1,0.5c-0.2,0.1-0.3,0.1-0.6,0.2c-0.2,0-0.4,0.1-0.6,0.1c-0.4,0-0.7-0.1-1-0.2
		c-0.3-0.1-0.5-0.3-0.7-0.5c-0.2-0.2-0.4-0.5-0.5-0.7c-0.1-0.3-0.2-0.6-0.2-0.9c0-0.3,0.1-0.7,0.2-0.9c0.1-0.3,0.3-0.5,0.5-0.7
		c0.2-0.2,0.4-0.4,0.7-0.5C143.9,51.9,144.2,51.9,144.6,51.9"/>
	<rect id="XMLID_67_" x="147" y="51.9" class="st3" width="0.6" height="4.6"/>
	<path id="XMLID_64_" class="st3" d="M152.9,56.5h-0.6l-0.4-1.1h-2.1l-0.4,1.1h-0.6l1.8-4.6h0.6L152.9,56.5z M149.9,54.9h1.8
		l-0.9-2.4L149.9,54.9z"/>
	<path id="XMLID_63_" class="st3" d="M156.5,55.3c0,0.2,0,0.4-0.1,0.5c-0.1,0.2-0.2,0.3-0.3,0.4c-0.1,0.1-0.3,0.2-0.5,0.3
		c-0.2,0.1-0.4,0.1-0.6,0.1c-0.2,0-0.4,0-0.7-0.1c-0.2,0-0.4-0.1-0.6-0.2l0.1-0.5c0.2,0.1,0.4,0.1,0.6,0.2c0.2,0,0.4,0.1,0.6,0.1
		c0.3,0,0.5-0.1,0.7-0.2c0.2-0.1,0.3-0.3,0.3-0.5c0-0.1,0-0.2-0.1-0.3c-0.1-0.1-0.1-0.2-0.2-0.3c-0.1-0.1-0.2-0.1-0.3-0.2
		c-0.1-0.1-0.3-0.1-0.4-0.2c-0.2-0.1-0.3-0.2-0.4-0.2c-0.1-0.1-0.3-0.2-0.4-0.3c-0.1-0.1-0.2-0.2-0.3-0.4c-0.1-0.1-0.1-0.3-0.1-0.5
		c0-0.2,0-0.4,0.1-0.5c0.1-0.2,0.2-0.3,0.3-0.4c0.1-0.1,0.3-0.2,0.5-0.2c0.2-0.1,0.4-0.1,0.6-0.1c0.2,0,0.4,0,0.6,0.1
		c0.2,0.1,0.4,0.1,0.5,0.2l-0.1,0.5c-0.1-0.1-0.3-0.1-0.5-0.2c-0.2,0-0.4-0.1-0.6-0.1c-0.6,0-0.8,0.2-0.8,0.6c0,0.1,0,0.2,0,0.3
		c0,0.1,0.1,0.1,0.1,0.2c0.1,0.1,0.1,0.1,0.2,0.2c0.1,0.1,0.2,0.1,0.4,0.2c0.1,0.1,0.3,0.2,0.5,0.2c0.2,0.1,0.3,0.2,0.5,0.3
		c0.1,0.1,0.3,0.3,0.3,0.4C156.5,54.9,156.5,55.1,156.5,55.3"/>
	<path id="XMLID_60_" class="st3" d="M159.4,51.9h1.3c0.4,0,0.7,0.1,1.1,0.2c0.3,0.1,0.6,0.3,0.8,0.5c0.2,0.2,0.4,0.4,0.5,0.7
		c0.1,0.3,0.2,0.6,0.2,0.9c0,0.3-0.1,0.6-0.2,0.9c-0.1,0.3-0.3,0.5-0.5,0.7c-0.2,0.2-0.5,0.4-0.8,0.5c-0.3,0.1-0.7,0.2-1.1,0.2h-1.3
		V51.9z M160.6,56c0.3,0,0.5,0,0.8-0.1c0.2-0.1,0.4-0.2,0.6-0.3c0.2-0.2,0.3-0.3,0.4-0.6c0.1-0.2,0.2-0.5,0.2-0.8
		c0-0.3-0.1-0.5-0.2-0.8c-0.1-0.2-0.2-0.4-0.4-0.6c-0.2-0.2-0.4-0.3-0.6-0.3c-0.2-0.1-0.5-0.1-0.8-0.1H160V56H160.6z"/>
	<polygon id="XMLID_59_" class="st3" points="164.3,51.9 166.9,51.9 166.9,52.4 165,52.4 165,53.9 166.8,53.9 166.8,54.4 165,54.4 
		165,56 166.9,56 166.9,56.5 164.3,56.5 	"/>
	<polygon id="XMLID_58_" class="st3" points="170.5,51.9 170.5,56 172.4,56 172.4,56.5 169.8,56.5 169.8,51.9 	"/>
	<path id="XMLID_55_" class="st3" d="M177.4,56.5h-0.6l-0.4-1.1h-2.1l-0.4,1.1h-0.6l1.8-4.6h0.6L177.4,56.5z M174.4,54.9h1.8
		l-0.9-2.4L174.4,54.9z"/>
	<path id="XMLID_54_" class="st3" d="M182.2,51.9c0.2,0,0.4,0,0.6,0.1c0.2,0,0.4,0.1,0.6,0.2l-0.1,0.5c-0.2-0.1-0.3-0.1-0.5-0.1
		c-0.2,0-0.4-0.1-0.5-0.1c-0.6,0-1,0.2-1.3,0.5c-0.3,0.3-0.5,0.8-0.5,1.4c0,0.6,0.2,1.1,0.5,1.4c0.3,0.3,0.8,0.5,1.3,0.5
		c0.2,0,0.4,0,0.5-0.1c0.2,0,0.3-0.1,0.5-0.1l0.1,0.5c-0.2,0.1-0.3,0.1-0.6,0.2c-0.2,0-0.4,0.1-0.6,0.1c-0.4,0-0.7-0.1-1-0.2
		c-0.3-0.1-0.5-0.3-0.7-0.5c-0.2-0.2-0.4-0.5-0.5-0.7c-0.1-0.3-0.2-0.6-0.2-0.9c0-0.3,0.1-0.7,0.2-0.9c0.1-0.3,0.3-0.5,0.5-0.7
		c0.2-0.2,0.4-0.4,0.7-0.5C181.5,51.9,181.9,51.9,182.2,51.9"/>
	<path id="XMLID_51_" class="st3" d="M186.5,56.6c-0.4,0-0.7-0.1-1-0.2c-0.3-0.1-0.5-0.3-0.7-0.5c-0.2-0.2-0.3-0.5-0.4-0.8
		c-0.1-0.3-0.1-0.6-0.1-0.9c0-0.3,0-0.6,0.1-0.9c0.1-0.3,0.2-0.5,0.4-0.8c0.2-0.2,0.4-0.4,0.7-0.5c0.3-0.1,0.6-0.2,1-0.2
		c0.4,0,0.7,0.1,1,0.2c0.3,0.1,0.5,0.3,0.7,0.5c0.2,0.2,0.3,0.5,0.4,0.8c0.1,0.3,0.1,0.6,0.1,0.9c0,0.3,0,0.6-0.1,0.9
		c-0.1,0.3-0.2,0.5-0.4,0.8c-0.2,0.2-0.4,0.4-0.7,0.5C187.1,56.5,186.8,56.6,186.5,56.6 M186.5,56.1c0.3,0,0.5,0,0.7-0.1
		c0.2-0.1,0.4-0.2,0.5-0.4c0.1-0.2,0.2-0.4,0.3-0.6c0.1-0.2,0.1-0.5,0.1-0.7c0-0.3,0-0.5-0.1-0.7c-0.1-0.2-0.2-0.4-0.3-0.6
		c-0.1-0.2-0.3-0.3-0.5-0.4c-0.2-0.1-0.4-0.1-0.7-0.1c-0.3,0-0.5,0-0.7,0.1c-0.2,0.1-0.4,0.2-0.5,0.4c-0.1,0.2-0.2,0.4-0.3,0.6
		c-0.1,0.2-0.1,0.5-0.1,0.7c0,0.3,0,0.5,0.1,0.7c0.1,0.2,0.2,0.4,0.3,0.6c0.1,0.2,0.3,0.3,0.5,0.4C186,56,186.2,56.1,186.5,56.1"/>
	<polygon id="XMLID_50_" class="st3" points="193.7,51.9 194.3,51.9 194.6,56.5 194,56.5 193.8,52.9 192.5,55.7 191.9,55.7 
		190.5,52.9 190.3,56.5 189.7,56.5 190,51.9 190.6,51.9 192.2,55.2 	"/>
	<path id="XMLID_49_" class="st3" d="M198.8,51.9h0.6v3c0,0.2,0,0.5-0.1,0.7c-0.1,0.2-0.2,0.4-0.3,0.5c-0.2,0.2-0.3,0.3-0.6,0.4
		c-0.2,0.1-0.5,0.1-0.8,0.1c-0.3,0-0.6,0-0.8-0.1c-0.2-0.1-0.4-0.2-0.6-0.4c-0.2-0.2-0.3-0.3-0.3-0.5c-0.1-0.2-0.1-0.4-0.1-0.7v-3
		h0.6v3c0,0.3,0.1,0.6,0.3,0.8c0.2,0.2,0.5,0.3,0.9,0.3c0.4,0,0.7-0.1,0.9-0.3c0.2-0.2,0.3-0.5,0.3-0.8V51.9z"/>
	<polygon id="XMLID_48_" class="st3" points="204,56.5 201.4,52.9 201.4,56.5 200.8,56.5 200.8,51.9 201.4,51.9 204,55.5 204,51.9 
		204.6,51.9 204.6,56.5 	"/>
	<rect id="XMLID_47_" x="206" y="51.9" class="st3" width="0.6" height="4.6"/>
	<path id="XMLID_46_" class="st3" d="M210.1,51.9c0.2,0,0.4,0,0.6,0.1c0.2,0,0.4,0.1,0.6,0.2l-0.1,0.5c-0.2-0.1-0.3-0.1-0.5-0.1
		c-0.2,0-0.4-0.1-0.5-0.1c-0.6,0-1,0.2-1.3,0.5c-0.3,0.3-0.5,0.8-0.5,1.4c0,0.6,0.2,1.1,0.5,1.4c0.3,0.3,0.8,0.5,1.3,0.5
		c0.2,0,0.4,0,0.5-0.1c0.2,0,0.3-0.1,0.5-0.1l0.1,0.5c-0.2,0.1-0.3,0.1-0.6,0.2c-0.2,0-0.4,0.1-0.6,0.1c-0.4,0-0.7-0.1-1-0.2
		c-0.3-0.1-0.5-0.3-0.7-0.5c-0.2-0.2-0.4-0.5-0.5-0.7c-0.1-0.3-0.2-0.6-0.2-0.9c0-0.3,0.1-0.7,0.2-0.9c0.1-0.3,0.3-0.5,0.5-0.7
		c0.2-0.2,0.4-0.4,0.7-0.5C209.4,51.9,209.8,51.9,210.1,51.9"/>
	<path id="XMLID_43_" class="st3" d="M216.4,56.5h-0.6l-0.4-1.1h-2.1l-0.4,1.1h-0.6l1.8-4.6h0.6L216.4,56.5z M213.4,54.9h1.8
		l-0.9-2.4L213.4,54.9z"/>
	<path id="XMLID_42_" class="st3" d="M219.3,51.9c0.2,0,0.4,0,0.6,0.1c0.2,0,0.4,0.1,0.6,0.2l-0.1,0.5c-0.2-0.1-0.3-0.1-0.5-0.1
		c-0.2,0-0.4-0.1-0.5-0.1c-0.6,0-1,0.2-1.3,0.5c-0.3,0.3-0.5,0.8-0.5,1.4c0,0.6,0.2,1.1,0.5,1.4c0.3,0.3,0.8,0.5,1.3,0.5
		c0.2,0,0.4,0,0.5-0.1c0.2,0,0.3-0.1,0.5-0.1l0.1,0.5c-0.2,0.1-0.3,0.1-0.6,0.2c-0.2,0-0.4,0.1-0.6,0.1c-0.4,0-0.7-0.1-1-0.2
		c-0.3-0.1-0.5-0.3-0.7-0.5c-0.2-0.2-0.4-0.5-0.5-0.7c-0.1-0.3-0.2-0.6-0.2-0.9c0-0.3,0.1-0.7,0.2-0.9c0.1-0.3,0.3-0.5,0.5-0.7
		c0.2-0.2,0.4-0.4,0.7-0.5C218.6,51.9,218.9,51.9,219.3,51.9"/>
	<rect id="XMLID_41_" x="221.7" y="51.9" class="st3" width="0.6" height="4.6"/>
	<path id="XMLID_37_" class="st3" d="M225.7,56.6c-0.4,0-0.7-0.1-1-0.2c-0.3-0.1-0.5-0.3-0.7-0.5c-0.2-0.2-0.3-0.5-0.4-0.8
		c-0.1-0.3-0.1-0.6-0.1-0.9c0-0.3,0-0.6,0.1-0.9c0.1-0.3,0.2-0.5,0.4-0.8c0.2-0.2,0.4-0.4,0.7-0.5c0.3-0.1,0.6-0.2,1-0.2
		c0.4,0,0.7,0.1,1,0.2c0.3,0.1,0.5,0.3,0.7,0.5c0.2,0.2,0.3,0.5,0.4,0.8c0.1,0.3,0.1,0.6,0.1,0.9c0,0.3,0,0.6-0.1,0.9
		c-0.1,0.3-0.2,0.5-0.4,0.8c-0.2,0.2-0.4,0.4-0.7,0.5C226.4,56.5,226,56.6,225.7,56.6 M225.7,56.1c0.3,0,0.5,0,0.7-0.1
		c0.2-0.1,0.4-0.2,0.5-0.4c0.1-0.2,0.2-0.4,0.3-0.6c0.1-0.2,0.1-0.5,0.1-0.7c0-0.3,0-0.5-0.1-0.7c-0.1-0.2-0.2-0.4-0.3-0.6
		c-0.1-0.2-0.3-0.3-0.5-0.4c-0.2-0.1-0.4-0.1-0.7-0.1c-0.3,0-0.5,0-0.7,0.1c-0.2,0.1-0.4,0.2-0.5,0.4c-0.1,0.2-0.2,0.4-0.3,0.6
		c-0.1,0.2-0.1,0.5-0.1,0.7c0,0.3,0,0.5,0.1,0.7c0.1,0.2,0.2,0.4,0.3,0.6c0.1,0.2,0.3,0.3,0.5,0.4C225.2,56,225.4,56.1,225.7,56.1
		 M225.4,51.5l0.6-0.8h0.7l-0.8,0.8H225.4z"/>
	<polygon id="XMLID_36_" class="st3" points="232.2,56.5 229.7,52.9 229.7,56.5 229.1,56.5 229.1,51.9 229.7,51.9 232.2,55.5 
		232.2,51.9 232.8,51.9 232.8,56.5 	"/>
	<path id="XMLID_35_" class="st3" d="M233.9,57.4c0.1-0.3,0.2-0.5,0.3-0.8c0.1-0.3,0.1-0.5,0.1-0.8l0.6,0.1c0,0.3-0.1,0.6-0.2,0.9
		c-0.1,0.3-0.3,0.6-0.4,0.9L233.9,57.4z"/>
	<polygon id="XMLID_34_" class="st3" points="84.1,60.8 84.1,61.3 82.7,61.3 82.7,65.3 82.1,65.3 82.1,61.3 80.7,61.3 80.7,60.8 	
		"/>
	<path id="XMLID_33_" class="st3" d="M88,60.8h0.6v3c0,0.2,0,0.5-0.1,0.7c-0.1,0.2-0.2,0.4-0.3,0.5c-0.2,0.2-0.3,0.3-0.6,0.4
		c-0.2,0.1-0.5,0.1-0.8,0.1c-0.3,0-0.6,0-0.8-0.1c-0.2-0.1-0.4-0.2-0.6-0.4c-0.2-0.2-0.3-0.3-0.3-0.5C85,64.2,85,63.9,85,63.7v-3
		h0.6v3c0,0.3,0.1,0.6,0.3,0.8c0.2,0.2,0.5,0.3,0.9,0.3c0.4,0,0.7-0.1,0.9-0.3c0.2-0.2,0.3-0.5,0.3-0.8V60.8z"/>
	<path id="XMLID_30_" class="st3" d="M90.6,65.3h-0.6v-4.6h1.2c0.2,0,0.5,0,0.7,0.1c0.2,0.1,0.4,0.1,0.6,0.2
		c0.2,0.1,0.3,0.2,0.4,0.4c0.1,0.2,0.1,0.3,0.1,0.6c0,0.3-0.1,0.6-0.3,0.8c-0.2,0.2-0.5,0.4-0.9,0.5l1.6,1.9h-0.8l-1.5-1.8
		c0,0-0.1,0-0.1,0c0,0-0.1,0-0.1,0h-0.1h-0.1V65.3z M92.3,62.1c0-0.1,0-0.3-0.1-0.4c-0.1-0.1-0.1-0.2-0.2-0.2
		c-0.1-0.1-0.2-0.1-0.4-0.1c-0.1,0-0.3,0-0.4,0h-0.5V63h0.3c0.2,0,0.4,0,0.5-0.1c0.2,0,0.3-0.1,0.4-0.2c0.1-0.1,0.2-0.2,0.3-0.3
		C92.2,62.4,92.3,62.2,92.3,62.1"/>
	<rect id="XMLID_29_" x="94.3" y="60.8" class="st3" width="0.6" height="4.6"/>
	<path id="XMLID_28_" class="st3" d="M98.9,64.1c0,0.2,0,0.4-0.1,0.5c-0.1,0.2-0.2,0.3-0.3,0.4c-0.1,0.1-0.3,0.2-0.5,0.3
		c-0.2,0.1-0.4,0.1-0.6,0.1c-0.2,0-0.4,0-0.7-0.1c-0.2,0-0.4-0.1-0.6-0.2l0.1-0.5c0.2,0.1,0.4,0.1,0.6,0.2c0.2,0,0.4,0.1,0.6,0.1
		c0.3,0,0.5-0.1,0.7-0.2c0.2-0.1,0.3-0.3,0.3-0.5c0-0.1,0-0.2-0.1-0.3c-0.1-0.1-0.1-0.2-0.2-0.3c-0.1-0.1-0.2-0.1-0.3-0.2
		c-0.1-0.1-0.3-0.1-0.4-0.2C97.1,63.1,97,63,96.9,63c-0.1-0.1-0.3-0.2-0.4-0.3c-0.1-0.1-0.2-0.2-0.3-0.4c-0.1-0.1-0.1-0.3-0.1-0.5
		c0-0.2,0-0.4,0.1-0.5c0.1-0.2,0.2-0.3,0.3-0.4c0.1-0.1,0.3-0.2,0.5-0.2c0.2-0.1,0.4-0.1,0.6-0.1c0.2,0,0.4,0,0.6,0.1
		c0.2,0.1,0.4,0.1,0.5,0.2l-0.1,0.5c-0.1-0.1-0.3-0.1-0.5-0.2c-0.2,0-0.4-0.1-0.6-0.1c-0.6,0-0.8,0.2-0.8,0.6c0,0.1,0,0.2,0,0.3
		c0,0.1,0.1,0.1,0.1,0.2c0.1,0.1,0.1,0.1,0.2,0.2c0.1,0.1,0.2,0.1,0.4,0.2c0.1,0.1,0.3,0.2,0.5,0.2c0.2,0.1,0.3,0.2,0.5,0.3
		c0.1,0.1,0.3,0.3,0.3,0.4C98.9,63.8,98.9,63.9,98.9,64.1"/>
	<polygon id="XMLID_27_" class="st3" points="103.9,60.8 104.5,60.8 104.8,65.3 104.2,65.3 104,61.8 102.7,64.5 102,64.5 
		100.7,61.8 100.5,65.3 99.9,65.3 100.2,60.8 100.8,60.8 102.4,64 	"/>
	<path id="XMLID_24_" class="st3" d="M108.1,65.4c-0.4,0-0.7-0.1-1-0.2c-0.3-0.1-0.5-0.3-0.7-0.5c-0.2-0.2-0.3-0.5-0.4-0.8
		c-0.1-0.3-0.1-0.6-0.1-0.9c0-0.3,0-0.6,0.1-0.9c0.1-0.3,0.2-0.5,0.4-0.8c0.2-0.2,0.4-0.4,0.7-0.5c0.3-0.1,0.6-0.2,1-0.2
		c0.4,0,0.7,0.1,1,0.2c0.3,0.1,0.5,0.3,0.7,0.5c0.2,0.2,0.3,0.5,0.4,0.8c0.1,0.3,0.1,0.6,0.1,0.9c0,0.3,0,0.6-0.1,0.9
		c-0.1,0.3-0.2,0.5-0.4,0.8c-0.2,0.2-0.4,0.4-0.7,0.5C108.7,65.3,108.4,65.4,108.1,65.4 M108.1,64.9c0.3,0,0.5,0,0.7-0.1
		c0.2-0.1,0.4-0.2,0.5-0.4c0.1-0.2,0.2-0.4,0.3-0.6c0.1-0.2,0.1-0.5,0.1-0.7c0-0.3,0-0.5-0.1-0.7c-0.1-0.2-0.2-0.4-0.3-0.6
		c-0.1-0.2-0.3-0.3-0.5-0.4c-0.2-0.1-0.4-0.1-0.7-0.1c-0.3,0-0.5,0-0.7,0.1c-0.2,0.1-0.4,0.2-0.5,0.4c-0.1,0.2-0.2,0.4-0.3,0.6
		c-0.1,0.2-0.1,0.5-0.1,0.7c0,0.3,0,0.5,0.1,0.7c0.1,0.2,0.2,0.4,0.3,0.6c0.1,0.2,0.3,0.3,0.5,0.4C107.6,64.9,107.8,64.9,108.1,64.9
		"/>
	<polygon id="XMLID_23_" class="st3" points="115.4,60.8 116.1,60.8 114.6,63.5 114.6,65.3 114,65.3 114,63.5 112.5,60.8 
		113.1,60.8 114.3,62.9 	"/>
	<path id="XMLID_20_" class="st3" d="M121.6,62.1c0,0.2,0,0.4-0.1,0.6c-0.1,0.2-0.2,0.3-0.4,0.4c-0.2,0.1-0.4,0.2-0.6,0.3
		c-0.2,0.1-0.5,0.1-0.8,0.1h-0.3v1.8h-0.6v-4.6h1.1c0.2,0,0.5,0,0.7,0.1c0.2,0.1,0.4,0.1,0.6,0.3c0.2,0.1,0.3,0.3,0.4,0.4
		C121.5,61.7,121.6,61.9,121.6,62.1 M120.9,62.1c0-0.2,0-0.3-0.1-0.4c-0.1-0.1-0.1-0.2-0.2-0.3c-0.1-0.1-0.2-0.1-0.4-0.1
		c-0.1,0-0.3,0-0.4,0h-0.5V63h0.3c0.2,0,0.4,0,0.5-0.1c0.2,0,0.3-0.1,0.4-0.2c0.1-0.1,0.2-0.2,0.3-0.3
		C120.9,62.4,120.9,62.2,120.9,62.1"/>
	<path id="XMLID_19_" class="st3" d="M125.1,64.1c0,0.2,0,0.4-0.1,0.5c-0.1,0.2-0.2,0.3-0.3,0.4c-0.1,0.1-0.3,0.2-0.5,0.3
		c-0.2,0.1-0.4,0.1-0.6,0.1c-0.2,0-0.4,0-0.7-0.1c-0.2,0-0.4-0.1-0.6-0.2l0.1-0.5c0.2,0.1,0.4,0.1,0.6,0.2c0.2,0,0.4,0.1,0.6,0.1
		c0.3,0,0.5-0.1,0.7-0.2c0.2-0.1,0.3-0.3,0.3-0.5c0-0.1,0-0.2-0.1-0.3c-0.1-0.1-0.1-0.2-0.2-0.3c-0.1-0.1-0.2-0.1-0.3-0.2
		c-0.1-0.1-0.3-0.1-0.4-0.2c-0.2-0.1-0.3-0.2-0.4-0.2c-0.1-0.1-0.3-0.2-0.4-0.3c-0.1-0.1-0.2-0.2-0.3-0.4c-0.1-0.1-0.1-0.3-0.1-0.5
		c0-0.2,0-0.4,0.1-0.5c0.1-0.2,0.2-0.3,0.3-0.4c0.1-0.1,0.3-0.2,0.5-0.2c0.2-0.1,0.4-0.1,0.6-0.1c0.2,0,0.4,0,0.6,0.1
		c0.2,0.1,0.4,0.1,0.5,0.2l-0.1,0.5c-0.1-0.1-0.3-0.1-0.5-0.2c-0.2,0-0.4-0.1-0.6-0.1c-0.6,0-0.8,0.2-0.8,0.6c0,0.1,0,0.2,0,0.3
		c0,0.1,0.1,0.1,0.1,0.2c0.1,0.1,0.1,0.1,0.2,0.2c0.1,0.1,0.2,0.1,0.4,0.2c0.1,0.1,0.3,0.2,0.5,0.2c0.2,0.1,0.3,0.2,0.5,0.3
		c0.1,0.1,0.3,0.3,0.3,0.4C125.1,63.8,125.1,63.9,125.1,64.1"/>
	<rect id="XMLID_18_" x="126.2" y="60.8" class="st3" width="0.6" height="4.6"/>
	<path id="XMLID_17_" class="st3" d="M130.4,60.7c0.2,0,0.4,0,0.6,0.1c0.2,0,0.4,0.1,0.6,0.2l-0.1,0.5c-0.2-0.1-0.3-0.1-0.5-0.1
		c-0.2,0-0.4-0.1-0.5-0.1c-0.6,0-1,0.2-1.3,0.5c-0.3,0.3-0.5,0.8-0.5,1.4c0,0.6,0.2,1.1,0.5,1.4c0.3,0.3,0.8,0.5,1.3,0.5
		c0.2,0,0.4,0,0.5-0.1c0.2,0,0.3-0.1,0.5-0.1l0.1,0.5c-0.2,0.1-0.3,0.1-0.6,0.2c-0.2,0-0.4,0.1-0.6,0.1c-0.4,0-0.7-0.1-1-0.2
		c-0.3-0.1-0.5-0.3-0.7-0.5c-0.2-0.2-0.4-0.5-0.5-0.7c-0.1-0.3-0.2-0.6-0.2-0.9c0-0.3,0.1-0.7,0.2-0.9c0.1-0.3,0.3-0.5,0.5-0.7
		c0.2-0.2,0.4-0.4,0.7-0.5C129.7,60.7,130,60.7,130.4,60.7"/>
	<path id="XMLID_14_" class="st3" d="M134.6,65.4c-0.4,0-0.7-0.1-1-0.2c-0.3-0.1-0.5-0.3-0.7-0.5c-0.2-0.2-0.3-0.5-0.4-0.8
		c-0.1-0.3-0.1-0.6-0.1-0.9c0-0.3,0-0.6,0.1-0.9c0.1-0.3,0.2-0.5,0.4-0.8c0.2-0.2,0.4-0.4,0.7-0.5c0.3-0.1,0.6-0.2,1-0.2
		s0.7,0.1,1,0.2c0.3,0.1,0.5,0.3,0.7,0.5c0.2,0.2,0.3,0.5,0.4,0.8c0.1,0.3,0.1,0.6,0.1,0.9c0,0.3,0,0.6-0.1,0.9
		c-0.1,0.3-0.2,0.5-0.4,0.8c-0.2,0.2-0.4,0.4-0.7,0.5C135.3,65.3,134.9,65.4,134.6,65.4 M134.6,64.9c0.3,0,0.5,0,0.7-0.1
		c0.2-0.1,0.4-0.2,0.5-0.4c0.1-0.2,0.2-0.4,0.3-0.6c0.1-0.2,0.1-0.5,0.1-0.7c0-0.3,0-0.5-0.1-0.7c-0.1-0.2-0.2-0.4-0.3-0.6
		c-0.1-0.2-0.3-0.3-0.5-0.4c-0.2-0.1-0.4-0.1-0.7-0.1c-0.3,0-0.5,0-0.7,0.1c-0.2,0.1-0.4,0.2-0.5,0.4c-0.1,0.2-0.2,0.4-0.3,0.6
		c-0.1,0.2-0.1,0.5-0.1,0.7c0,0.3,0,0.5,0.1,0.7c0.1,0.2,0.2,0.4,0.3,0.6c0.1,0.2,0.3,0.3,0.5,0.4C134.1,64.9,134.3,64.9,134.6,64.9
		"/>
	<polygon id="XMLID_13_" class="st3" points="138.6,60.8 138.6,64.8 140.5,64.8 140.5,65.3 137.9,65.3 137.9,60.8 	"/>
	<path id="XMLID_10_" class="st3" d="M143.3,65.4c-0.4,0-0.7-0.1-1-0.2c-0.3-0.1-0.5-0.3-0.7-0.5c-0.2-0.2-0.3-0.5-0.4-0.8
		c-0.1-0.3-0.1-0.6-0.1-0.9c0-0.3,0-0.6,0.1-0.9c0.1-0.3,0.2-0.5,0.4-0.8c0.2-0.2,0.4-0.4,0.7-0.5c0.3-0.1,0.6-0.2,1-0.2
		s0.7,0.1,1,0.2c0.3,0.1,0.5,0.3,0.7,0.5c0.2,0.2,0.3,0.5,0.4,0.8c0.1,0.3,0.1,0.6,0.1,0.9c0,0.3,0,0.6-0.1,0.9
		c-0.1,0.3-0.2,0.5-0.4,0.8c-0.2,0.2-0.4,0.4-0.7,0.5C144,65.3,143.6,65.4,143.3,65.4 M143.3,64.9c0.3,0,0.5,0,0.7-0.1
		c0.2-0.1,0.4-0.2,0.5-0.4c0.1-0.2,0.2-0.4,0.3-0.6c0.1-0.2,0.1-0.5,0.1-0.7c0-0.3,0-0.5-0.1-0.7c-0.1-0.2-0.2-0.4-0.3-0.6
		c-0.1-0.2-0.3-0.3-0.5-0.4c-0.2-0.1-0.4-0.1-0.7-0.1c-0.3,0-0.5,0-0.7,0.1c-0.2,0.1-0.4,0.2-0.5,0.4c-0.1,0.2-0.2,0.4-0.3,0.6
		c-0.1,0.2-0.1,0.5-0.1,0.7c0,0.3,0,0.5,0.1,0.7c0.1,0.2,0.2,0.4,0.3,0.6c0.1,0.2,0.3,0.3,0.5,0.4C142.8,64.9,143,64.9,143.3,64.9"
		/>
	<path id="XMLID_9_" class="st3" d="M148.8,60.7c0.3,0,0.5,0,0.7,0.1c0.2,0,0.4,0.1,0.6,0.2l-0.1,0.5c-0.2-0.1-0.4-0.1-0.6-0.2
		c-0.2,0-0.4-0.1-0.6-0.1c-0.6,0-1,0.2-1.3,0.5c-0.3,0.3-0.5,0.8-0.5,1.4c0,0.6,0.2,1,0.5,1.3c0.3,0.3,0.8,0.5,1.4,0.5
		c0.1,0,0.3,0,0.4,0c0.1,0,0.3,0,0.4-0.1v-1.5h0.6v1.8c-0.2,0.1-0.4,0.1-0.7,0.2c-0.3,0-0.5,0.1-0.8,0.1c-0.4,0-0.7-0.1-1-0.2
		c-0.3-0.1-0.5-0.3-0.8-0.5c-0.2-0.2-0.4-0.4-0.5-0.7c-0.1-0.3-0.2-0.6-0.2-0.9c0-0.4,0.1-0.7,0.2-1c0.1-0.3,0.3-0.6,0.5-0.8
		c0.2-0.2,0.5-0.4,0.8-0.5C148.1,60.7,148.5,60.7,148.8,60.7"/>
	<path id="XMLID_6_" class="st3" d="M152.2,65.3h-0.6v-4.6h0.6V65.3z M151.6,60.3l0.6-0.8h0.7l-0.8,0.8H151.6z"/>
	<path id="XMLID_3_" class="st3" d="M157.5,65.3h-0.6l-0.4-1.1h-2.1l-0.4,1.1h-0.6l1.8-4.6h0.6L157.5,65.3z M154.5,63.7h1.8
		l-0.9-2.4L154.5,63.7z"/>
	<path id="XMLID_2_" class="st3" d="M159.3,65c0,0.1,0,0.2-0.1,0.3c-0.1,0.1-0.2,0.1-0.3,0.1c-0.1,0-0.2,0-0.3-0.1
		c-0.1-0.1-0.1-0.2-0.1-0.3c0-0.1,0-0.2,0.1-0.3c0.1-0.1,0.2-0.1,0.3-0.1c0.1,0,0.2,0,0.3,0.1C159.3,64.8,159.3,64.9,159.3,65"/>
</g>
</svg>
