<?xml version="1.0" encoding="utf-8"?>
<!-- Generator: Adobe Illustrator 19.0.0, SVG Export Plug-In . SVG Version: 6.00 Build 0)  -->
<svg version="1.1" id="Capa_1" xmlns="http://www.w3.org/2000/svg" xmlns:xlink="http://www.w3.org/1999/xlink" x="0px" y="0px"
	 viewBox="0 0 263.7 12.6" style="enable-background:new 0 0 263.7 12.6;" xml:space="preserve">
<style type="text/css">
	.st0{fill:#A5A5A5;}
</style>
<g id="XMLID_129_">
	<g id="XMLID_612_">
		<polygon id="XMLID_613_" class="st0" points="56.1,12.6 55.7,12.6 63.4,1 63.8,1 		"/>
	</g>
	<g id="XMLID_608_">
		<polygon id="XMLID_609_" class="st0" points="63.8,12.6 63.3,12.6 71,1 71.5,1 		"/>
	</g>
	<g id="XMLID_604_">
		<polygon id="XMLID_605_" class="st0" points="71.5,12.6 71,12.6 78.7,1 79.2,1 		"/>
	</g>
	<g id="XMLID_600_">
		<polygon id="XMLID_601_" class="st0" points="79.2,12.6 78.7,12.6 86.4,1 86.9,1 		"/>
	</g>
	<g id="XMLID_596_">
		<polygon id="XMLID_597_" class="st0" points="86.9,12.6 86.4,12.6 94.1,1 94.6,1 		"/>
	</g>
	<g id="XMLID_592_">
		<polygon id="XMLID_593_" class="st0" points="94.5,12.6 94.1,12.6 101.8,1 102.2,1 		"/>
	</g>
	<g id="XMLID_588_">
		<polygon id="XMLID_589_" class="st0" points="102.2,12.6 101.8,12.6 109.5,1 109.9,1 		"/>
	</g>
	<g id="XMLID_584_">
		<polygon id="XMLID_585_" class="st0" points="109.9,12.6 109.5,12.6 117.2,1 117.6,1 		"/>
	</g>
	<g id="XMLID_580_">
		<polygon id="XMLID_581_" class="st0" points="117.6,12.6 117.2,12.6 124.9,1 125.3,1 		"/>
	</g>
	<g id="XMLID_576_">
		<polygon id="XMLID_577_" class="st0" points="125.3,12.6 124.9,12.6 132.6,1 133,1 		"/>
	</g>
	<g id="XMLID_572_">
		<polygon id="XMLID_573_" class="st0" points="133,12.6 132.6,12.6 140.3,1 140.7,1 		"/>
	</g>
	<g id="XMLID_568_">
		<polygon id="XMLID_569_" class="st0" points="140.7,12.6 140.2,12.6 147.9,1 148.4,1 		"/>
	</g>
	<g id="XMLID_564_">
		<polygon id="XMLID_565_" class="st0" points="148.4,12.6 147.9,12.6 155.6,1 156.1,1 		"/>
	</g>
	<g id="XMLID_560_">
		<polygon id="XMLID_561_" class="st0" points="156.1,12.6 155.6,12.6 163.3,1 163.8,1 		"/>
	</g>
	<g id="XMLID_556_">
		<polygon id="XMLID_557_" class="st0" points="163.8,12.6 163.3,12.6 171,1 171.5,1 		"/>
	</g>
	<g id="XMLID_552_">
		<polygon id="XMLID_553_" class="st0" points="171.4,12.6 171,12.6 178.7,1 179.1,1 		"/>
	</g>
	<g id="XMLID_548_">
		<polygon id="XMLID_549_" class="st0" points="179.1,12.6 178.7,12.6 186.4,1 186.8,1 		"/>
	</g>
	<g id="XMLID_544_">
		<polygon id="XMLID_545_" class="st0" points="186.8,12.6 186.4,12.6 194.1,1 194.5,1 		"/>
	</g>
	<g id="XMLID_540_">
		<polygon id="XMLID_541_" class="st0" points="194.5,12.6 194.1,12.6 201.8,1 202.2,1 		"/>
	</g>
	<g id="XMLID_536_">
		<polygon id="XMLID_537_" class="st0" points="202.2,12.6 201.8,12.6 209.5,1 209.9,1 		"/>
	</g>
	<g id="XMLID_532_">
		<polygon id="XMLID_533_" class="st0" points="209.9,12.6 209.5,12.6 217.2,1 217.6,1 		"/>
	</g>
	<g id="XMLID_528_">
		<polygon id="XMLID_529_" class="st0" points="217.6,12.6 217.1,12.6 224.8,1 225.3,1 		"/>
	</g>
	<g id="XMLID_524_">
		<polygon id="XMLID_525_" class="st0" points="225.3,12.6 224.8,12.6 232.5,1 233,1 		"/>
	</g>
	<g id="XMLID_520_">
		<polygon id="XMLID_521_" class="st0" points="233,12.6 232.5,12.6 240.2,1 240.7,1 		"/>
	</g>
	<g id="XMLID_516_">
		<polygon id="XMLID_517_" class="st0" points="240.7,12.6 240.2,12.6 247.9,1 248.4,1 		"/>
	</g>
	<g id="XMLID_512_">
		<polygon id="XMLID_513_" class="st0" points="248.4,12.6 247.9,12.6 255.6,1 256.1,1 		"/>
	</g>
	<g id="XMLID_508_">
		<polygon id="XMLID_509_" class="st0" points="256,12.6 255.6,12.6 263.3,1 263.7,1 		"/>
	</g>
	<g id="XMLID_424_">
		<polygon id="XMLID_425_" class="st0" points="1.4,12.6 1,12.6 8.7,1 9.1,1 		"/>
	</g>
	<g id="XMLID_420_">
		<polygon id="XMLID_421_" class="st0" points="9.1,12.6 8.7,12.6 16.4,1 16.8,1 		"/>
	</g>
	<g id="XMLID_416_">
		<polygon id="XMLID_417_" class="st0" points="16.8,12.6 16.4,12.6 24.1,1 24.5,1 		"/>
	</g>
	<g id="XMLID_412_">
		<polygon id="XMLID_413_" class="st0" points="24.5,12.6 24.1,12.6 31.8,1 32.2,1 		"/>
	</g>
	<g id="XMLID_408_">
		<polygon id="XMLID_409_" class="st0" points="32.2,12.6 31.8,12.6 39.5,1 39.9,1 		"/>
	</g>
	<g id="XMLID_404_">
		<polygon id="XMLID_405_" class="st0" points="39.9,12.6 39.5,12.6 47.2,1 47.6,1 		"/>
	</g>
	<g id="XMLID_400_">
		<polygon id="XMLID_401_" class="st0" points="47.6,12.6 47.1,12.6 54.8,1 55.3,1 		"/>
	</g>
</g>
</svg>
