<svg viewBox="0 0 216 78" xmlns="http://www.w3.org/2000/svg" fill-rule="evenodd" clip-rule="evenodd" stroke-linejoin="round" stroke-miterlimit="2"><g fill="#742128" fill-rule="nonzero"><path d="M8.437 41.749H2.203l.015 6.153-.015 13.117h19.312V57.92s-4.821.005-6.5.005H8.441V47.902M46.554 61.019v-3.104l-15.344.01v-5.2h9.095v-3.091H31.21v-4.792h15.344v-3.093H24.987v19.27h21.567zM93.583 47.614c0 .865-.371 1.73-.917 2.163-.544.434-1.409.61-2.864.61h-5.883v-5.551h5.808c.569 0 1.358.058 1.776.119a2.28 2.28 0 0 1 1.361.722c.471.462.719 1.193.719 1.937m6.841-.083c0-2.575-1.578-4.684-3.925-5.354-1.063-.283-2.225-.429-3.807-.429H77.686l.01 6.153v6.987l-.01 6.129h6.233V53.48h7.66c3.091 0 4.94-.384 6.424-1.298 1.507-.96 2.421-2.715 2.421-4.651M126.695 61.019v-19.27h-6.222v7.857h-10.721l-.019-7.857h-6.208v19.27h6.208l.019-8.068h10.721v8.068h6.222zM144.99 52.003h-7.111l3.606-6.614 3.505 6.614zm12.176 9.016l-10.395-19.27h-6.77L132.469 55.3c-.273.46-3.161 5.719-3.161 5.719h3.646l3.463-6.182H146.5l3.258 6.182M182.511 41.749h-3.217l.002 6.153v6.935l-11.884-13.088h-7.092v19.269h3.212s.022-4.245.022-4.709c-.022-.318-.022-.783-.022-1.42v-7.193l12.178 13.322h6.801V41.749zM201.029 52.016h-7.123l3.61-6.619 3.513 6.619zm12.174 9.012l-10.396-19.271h-6.778l-7.525 13.549c-.274.466-3.17 5.723-3.17 5.723h3.655l3.466-6.182h10.085l3.251 6.182M70.608 41.749h-2.745l.013 6.153v5.378c0 .778-.108 1.464-.257 2.047-.227.838-.628 1.56-1.154 2.022-.829.741-1.958 1.082-3.211 1.132-1.874-.07-3.455-.646-4.482-1.615a4.122 4.122 0 0 1-.961-1.854c-.165-.807-.229-1.566-.229-2.98V41.749H50.98s.017 4.135.017 6.153v5.776c0 2.486.495 3.929 1.803 5.313 1.333 1.394 2.992 2.14 5.632 2.489.111.021.228.021.339.035.965.146 1.953.222 2.928.222.09 0 .172-.005.26-.01.085.005.17.01.255.01 4.396 0 7.29-.954 8.943-2.997 1.211-1.48 1.531-2.75 1.531-5.932v-4.907c0-2.054.007-6.153.007-6.153h-2.087v.001z"/></g><path d="M107.599 3.166l12.766 7.301.469-.86-12.765-7.299-.47.858z" fill="#1a171b" fill-rule="nonzero"/><path fill="#1a171b" d="M119.871 9.638h.938v14.559h-.938z"/><path d="M108.04 2.287l-12.781 7.32.462.86 12.782-7.315-.463-.865z" fill="#1a171b" fill-rule="nonzero"/><path fill="#1a171b" d="M95.987 9.234l24.648 14.443-.47.8-24.647-14.443z"/><path d="M96.107 24.407l-.468-.801 24.476-14.371.463.798-24.471 14.374z" fill="#1a171b" fill-rule="nonzero"/><path fill="#1a171b" d="M107.58 2.607h.936v28.456h-.936z"/><path d="M108.057 31.475l-12.774-7.236.464-.862 12.769 7.233-.459.865z" fill="#1a171b" fill-rule="nonzero"/><path d="M108.066 31.507l-.476-.866 12.782-7.295.471.865-12.777 7.296z" fill="#1a171b" fill-rule="nonzero"/><path fill="#1a171b" d="M95.283 9.638h.936v14.559h-.936z"/><g fill="#1a171b" fill-rule="nonzero"><path d="M36.917 72.388c0 2.711-2.111 3.266-3.849 3.266-1.737 0-3.847-.555-3.847-3.266v-4.4h.907v4.4c0 1.723 1.101 2.506 2.94 2.506 1.841 0 2.942-.783 2.942-2.506v-4.4h.907v4.4zM38.902 67.987h1.284l5.568 6.147v-6.147h.904v7.48h-.904l-5.99-6.678v6.678h-.863v-7.48h.001zM48.611 67.987h.906v7.48h-.906zM51.475 67.987l3.3 6.495 3.315-6.495h.999l-3.873 7.48h-.883l-3.867-7.48h1.009zM60.033 67.987H66.7v.803h-5.764v2.386h4.818v.801h-4.818v2.689h5.887v.802h-6.791v-7.481h.001zM68.036 67.987h4.324c1.192 0 2.941.253 2.941 2.087 0 1.566-1.45 2.02-2.354 2.061l2.466 3.333h-1.12l-2.407-3.312H68.94v3.312h-.904v-7.481zm.904 3.365h3.213c1.306 0 2.283-.186 2.283-1.286 0-1.092-.977-1.275-2.283-1.275H68.94v2.561zM77.253 73.33c.433.574 1.154 1.521 3.398 1.521 1.15 0 2.723-.33 2.723-1.497 0-2.271-6.522-.272-6.522-3.312 0-1.597 1.473-2.239 3.511-2.239 1.973 0 3.186.808 3.701 1.528l-.658.536c-.308-.351-1.028-1.306-3.063-1.306-1.502 0-2.563.391-2.563 1.338 0 2.262 6.521.102 6.521 3.454 0 1.253-1.214 2.299-3.752 2.299-2.45 0-3.356-1.024-3.995-1.728l.699-.594zM85.743 67.987h.906v7.48h-.906zM91.45 68.79h-3.609v-.803h8.127v.803h-3.611v6.678h-.907V68.79zM98.92 67.987h1.113l3.835 7.48h-1.017l-.966-1.95h-4.829l-.976 1.95h-1.007l3.847-7.48zm2.563 4.729l-2.007-4.022-2.009 4.022h4.016zm-3.408-6.555h.927v1.049h-.927v-1.049zm1.875 0h.927v1.049h-.927v-1.049zM106.585 68.79h-3.612v-.803h8.129v.803h-3.61v6.678h-.907V68.79zM116.009 67.987h.902v6.679h5.904v.802h-6.807v-7.481h.001zM131.739 72.388c0 2.711-2.108 3.266-3.854 3.266-1.73 0-3.843-.555-3.843-3.266v-4.4h.903v4.4c0 1.723 1.106 2.506 2.939 2.506 1.849 0 2.947-.783 2.947-2.506v-4.4h.906v4.4h.002zm-5.25-6.227h.924v1.049h-.924v-1.049zm1.871 0h.927v1.049h-.927v-1.049zM133.72 67.987h1.29l5.567 6.147v-6.147h.906v7.48h-.906l-5.993-6.678v6.678h-.864v-7.48zM143.436 67.987h6.662v.803h-5.759v2.386h4.812v.801h-4.812v2.689h5.882v.802h-6.785v-7.481zM151.437 67.987h4.329c.861 0 2.903 0 2.903 1.955 0 1.028-.666 1.348-1.139 1.574.453.193 1.397.604 1.397 1.854 0 2.015-2.113 2.097-3.659 2.097h-3.832v-7.48h.001zm.907 3.189h3.175c1.049 0 2.244-.175 2.244-1.226 0-1.194-1.216-1.202-2.554-1.202h-2.865v2.428zm0 3.49h3.503c1.092 0 2.156-.184 2.156-1.333 0-1.033-.822-1.398-2.052-1.398h-3.607v2.731zM168.313 72.388c0 2.711-2.111 3.266-3.854 3.266-1.732 0-3.847-.555-3.847-3.266v-4.4h.905v4.4c0 1.723 1.107 2.506 2.941 2.506 1.845 0 2.947-.783 2.947-2.506v-4.4h.906v4.4h.002zM170.292 67.987h4.327c1.195 0 2.944.253 2.944 2.087 0 1.566-1.458 2.02-2.363 2.061l2.469 3.333h-1.114l-2.41-3.312h-2.946v3.312h-.906v-7.481h-.001zm.906 3.365h3.215c1.302 0 2.286-.186 2.286-1.286 0-1.092-.984-1.275-2.286-1.275h-3.215v2.561zM187.015 71.833v3.697h-.804v-1.09c-.507.579-1.315 1.213-3 1.213-2.906 0-4.274-1.746-4.274-3.91 0-2.575 1.739-3.939 4.257-3.939 1.784 0 3.15.8 3.705 2.056l-.761.4c-.585-1.34-1.961-1.697-2.969-1.697-2.101 0-3.306 1.161-3.306 3.289 0 1.726 1.164 3 3.388 3 1.356 0 2.818-.657 2.941-2.218h-3.04v-.801h3.863z"/></g></svg>